<svg xmlns="http://www.w3.org/2000/svg" width="279.234" height="260.904" viewBox="0 0 279.234 260.904"><path d="M-8162.469,2698.663c-48.208-24.624-88.377-51.544-122.421-82.091l-12.7-11.828c-46.35-44.645-83.623-95.879-110.644-151.632h38.134q10.419,17.818,22.66,36.146c57.472,86.107,130.876,151.7,218.44,195.259v29.5C-8140.536,2709.213-8151.733,2704.078-8162.469,2698.663Zm-94.219-160.391a372.119,372.119,0,0,1-47.964-55.855q-10.211-14.6-18.984-29.3h35.175c22.629,34.49,50.558,66.579,84.752,97.436A346.217,346.217,0,0,0-8129,2602.2v22.145C-8176.4,2602.459-8219.894,2573.3-8256.688,2538.272Zm125.645,3.967a297.864,297.864,0,0,1-103.336-89.125h33.536a250.513,250.513,0,0,0,29.929,32.562A271.026,271.026,0,0,0-8129,2517.043v26.251Q-8130.024,2542.771-8131.043,2542.239Z" transform="translate(8408.234 -2453.113)" fill="#f7e1dd"/></svg>