<svg xmlns="http://www.w3.org/2000/svg" xmlns:xlink="http://www.w3.org/1999/xlink" width="463.102" height="777.911" viewBox="0 0 463.102 777.911"><defs><clipPath id="a"><rect width="463.102" height="777.911" fill="#faedec"/></clipPath></defs><g transform="translate(0)"><g transform="translate(0)" clip-path="url(#a)"><path d="M259.842,224.338C236.359,280.831,224.794,338.4,225.46,395.385a441.547,441.547,0,0,0,41.125,181.2c34.317,74.291,81.3,135.75,139.8,182.978V776.8H382.681c-2.718-2.561-4.77-4.535-5.58-5.266-10.441-9.422-20.543-19.288-30.239-29.468C281.979,673.9,227.682,597.377,202.369,505.522c-25.378-92.077-23.562-192.23,8.05-282.582C243.507,128.38,305.541,55.97,376.043,0h30.344V17.694C346.1,65.837,296.9,135.175,259.842,224.338" transform="translate(56.716)" fill="#faedec"/><path d="M263.428,777.911H218.736c-81.191-128.393-125-279.564-123.427-426.134a605.072,605.072,0,0,1,13.277-118.971C127.508,144.166,158.95,67.483,204.191,0h53.788c-37.048,57.055-64.229,113.117-82.59,170.093-25.692,79.728-37.466,164.2-35.963,258.276,1.5,94.521,25.4,183.684,71.038,264.966q24.424,43.5,52.965,84.576" transform="translate(29.228)" fill="#faedec"/><path d="M104.294,703.763a737.044,737.044,0,0,0,30.174,74.148H90.861q-11.134-23.131-21.026-46.849A851.963,851.963,0,0,1,38.17,641.69C12.047,550.123-.446,466.762.012,386.852.8,249.337,32.447,117.6,92.337,0H146.5C120.263,55.709,99.133,118.069,82.249,189.538c-41.961,177.5-34.552,350.51,22.046,514.225" transform="translate(0)" fill="#faedec"/></g></g></svg>