<svg xmlns="http://www.w3.org/2000/svg" width="459.3" height="731.869" viewBox="0 0 459.3 731.869">
  <path id="Subtraction_7" data-name="Subtraction 7" d="M275.435,796.5l0,0H232.451c-8.844-15.226-17.305-30.974-25.15-46.807-7.81-15.764-15.2-32-21.971-48.262-6.75-16.216-13.047-32.855-18.716-49.456-5.663-16.581-10.839-33.534-15.384-50.387s-8.577-34.041-11.976-51.058c-3.407-17.057-6.264-34.373-8.492-51.466-2.237-17.161-3.9-34.526-4.931-51.613-1.041-17.181-1.476-34.508-1.295-51.5a605.174,605.174,0,0,1,13.277-118.971c4.2-19.68,9.089-39.028,14.529-57.507,5.452-18.518,11.623-36.729,18.344-54.127,6.727-17.415,14.211-34.55,22.244-50.931s16.855-32.5,26.23-47.917h54.023c-7.455,12.284-14.56,24.72-21.117,36.965s-12.75,24.639-18.423,36.871-10.981,24.63-15.795,36.895c-4.8,12.237-9.255,24.7-13.231,37.037-25.7,79.758-37.465,164.241-35.962,258.276,1.5,94.535,25.4,183.682,71.037,264.966,11.189,19.926,23.214,39.773,35.743,58.99Zm-152.45,0H79c-3.143-7.05-6.227-14.2-9.167-21.262A852.346,852.346,0,0,1,38.17,685.865C12.563,596.107.077,514.373,0,436v-1.472c0-1.247,0-2.391.012-3.5.091-16.013.61-32.189,1.542-48.078.929-15.846,2.295-31.834,4.058-47.521,1.76-15.652,3.963-31.426,6.549-46.884,2.582-15.433,5.615-30.966,9.015-46.166s7.251-30.451,11.455-45.368,8.87-29.882,13.87-44.489,10.471-29.255,16.26-43.53S74.821,80.408,81.387,66.5h55.03c-5.382,12.422-10.607,25.363-15.53,38.467s-9.689,26.759-14.169,40.59-8.8,28.242-12.862,42.865c-4.05,14.592-7.955,29.83-11.608,45.291C40.285,411.227,47.7,584.237,104.295,747.938c5.675,16.427,11.963,32.766,18.689,48.562Zm331.372,0H413.6c-3.359-3.355-6.729-6.806-10.019-10.26-8.286-8.7-16.293-17.441-23.8-25.967-7.885-8.956-15.485-17.983-22.591-26.832-7.419-9.239-14.541-18.586-21.167-27.78-6.888-9.556-13.458-19.249-19.528-28.809-6.287-9.9-12.234-19.968-17.673-29.919-5.617-10.275-10.866-20.742-15.6-31.111-4.878-10.68-9.359-21.576-13.317-32.385-4.069-11.111-7.707-22.463-10.815-33.741a488.151,488.151,0,0,1-17.347-141.938,474.816,474.816,0,0,1,7.233-71.322,452.146,452.146,0,0,1,18.163-69.322c3.55-10.144,7.528-20.284,11.824-30.137,4.2-9.628,8.817-19.251,13.728-28.6A458.281,458.281,0,0,1,325.218,155.6a503.836,503.836,0,0,1,38.239-47.173A572.662,572.662,0,0,1,406.131,66.5h51.285a408.734,408.734,0,0,0-41.3,39.637,470.552,470.552,0,0,0-37.3,46.959,558.894,558.894,0,0,0-33.215,54.164,676.234,676.234,0,0,0-29.036,61.253C293.077,325,281.509,382.547,282.176,439.56a441.592,441.592,0,0,0,41.125,181.2,568.885,568.885,0,0,0,26.568,50.725,521.7,521.7,0,0,0,30.76,46.273,489.061,489.061,0,0,0,34.86,41.709,470.348,470.348,0,0,0,38.866,37.03Z" transform="translate(458.8 797.869) rotate(180)" fill="#faedec" stroke="rgba(0,0,0,0)" stroke-miterlimit="10" stroke-width="1"/>
</svg>
