<svg xmlns="http://www.w3.org/2000/svg" xmlns:xlink="http://www.w3.org/1999/xlink" width="49.28" height="49.279" viewBox="0 0 49.28 49.279"><defs><clipPath id="a"><rect width="49.28" height="49.279" fill="#253b85"/></clipPath></defs><g clip-path="url(#a)"><path d="M61.46,66.77a4.854,4.854,0,1,1,4.854-4.854A4.86,4.86,0,0,1,61.46,66.77m0-7.969a3.115,3.115,0,1,0,3.115,3.115A3.119,3.119,0,0,0,61.46,58.8" transform="translate(-36.914 -37.211)" fill="#253b85"/><path d="M49.187,60.94A11.449,11.449,0,1,1,60.636,49.49,11.462,11.462,0,0,1,49.187,60.94m0-21.159a9.71,9.71,0,1,0,9.71,9.71,9.721,9.721,0,0,0-9.71-9.71" transform="translate(-24.609 -24.807)" fill="#253b85"/><path d="M36.914,55.109A18.044,18.044,0,1,1,54.958,37.065,18.065,18.065,0,0,1,36.914,55.109m0-34.35A16.305,16.305,0,1,0,53.219,37.065,16.324,16.324,0,0,0,36.914,20.759" transform="translate(-12.305 -12.403)" fill="#253b85"/><path d="M24.64,49.279A24.64,24.64,0,1,1,49.28,24.64a24.668,24.668,0,0,1-24.64,24.64m0-47.54a22.9,22.9,0,1,0,22.9,22.9,22.927,22.927,0,0,0-22.9-22.9" fill="#253b85"/></g></svg>