<svg xmlns="http://www.w3.org/2000/svg" width="336.143" height="558.932" viewBox="0 0 336.143 558.932">
  <path id="Path_10178" data-name="Path 10178" d="M233.85,435.675c23.869-28.551,43.9-60.944,53.439-97.2,10.347-39.379,7.562-81.822-2.818-120.887a288.111,288.111,0,0,0-10.037-30.714,250.907,250.907,0,0,0-19.657-39.647c-3.859-6.307-8.032-12.491-12.406-18.372-.158-.207-.438-.605-.813-1.133l-.3-.415c-4.28-6.005-7.119-9.775-9.068-12.015a280.552,280.552,0,0,1,28.08-6.66,6.212,6.212,0,0,1,3.461-.04,6.379,6.379,0,0,1,2.146,2.386,319.34,319.34,0,0,1,50.866,154.541c0,30.355-.582,60.139-7.645,90.8a322.853,322.853,0,0,1-13.718,44.5c-4.935,12.654-11.31,23.5-18.06,34.982l-1.982,3.377a7.81,7.81,0,0,1-1.983,2.561c-1.013.672-2.516.678-4.241.617a182.294,182.294,0,0,1-36.521-5.187c.42-.5.839-.992,1.254-1.491M74.263,458.68c2.3-.24,4.5-.464,6.7-.728a201.259,201.259,0,0,0,33.946-6.828c.589-.174.688-.212,1.411.454q3.587,3.3,7.164,6.644c7.753,7.209,15.768,14.659,23.98,21.632a99.709,99.709,0,0,0,12.166,8.4c1.894,1.176,3.854,2.385,5.725,3.635a4.856,4.856,0,0,0,5.451.066c8.29-4.75,15.057-9.052,21.151-14.6q7.209-6.562,14.362-13.186l.862-.8q6.6-6.092,13.209-12.144a1.4,1.4,0,0,1,.363-.158,225.784,225.784,0,0,0,41.631,7.64c-24.221,32.937-49.579,58.027-77.5,76.674l-4.9,3.254c-3.058,2.028-6.116,4.061-9.146,6.129a4.179,4.179,0,0,1-5.428-.012l-12.8-8.935Q145.4,530.8,138.2,525.77c-18.317-12.839-33.183-29.274-46.845-45.009-4.408-5.075-8.594-10.542-12.7-15.907-1.569-2.056-3.136-4.1-4.721-6.139Zm26.8-338.93-.129.139c-3.07,3.468-6.252,7.053-9.254,10.7C69.637,157.364,55.017,188.648,47,226.229a205.578,205.578,0,0,0-4.526,40.561c-.544,50.458,14.687,102.5,42.875,146.553A209.592,209.592,0,0,0,103.52,437.6c-.672.134-1.338.275-2.012.41l-.156.033c-4.045.829-7.871,1.609-11.735,2.085-7.395.907-14.974,1.529-22.3,2.128l-4.106.37a1.259,1.259,0,0,1-.28-.264,243.593,243.593,0,0,1-27.369-55.55c-19.3-55.825-21.823-114.819-7.518-175.339,6.818-28.831,15.645-53.3,26.989-74.837,3.31-6.267,7.075-12.43,10.715-18.383l.163-.257c1.833-3.008,3.736-6.123,5.552-9.209.391-.667.526-.7.851-.7a3.134,3.134,0,0,1,.476.038,216.712,216.712,0,0,1,32.075,7.327c-1.26,1.435-2.532,2.867-3.8,4.3m121.844-14.262c-.655.2-.784.191-1.435-.408C204.09,89.21,187.571,77.127,170.969,68.137a5.414,5.414,0,0,0-5.7.012c-1.3.766-2.622,1.489-4.033,2.257-2.189,1.2-4.458,2.436-6.6,3.859-11.7,7.753-26.864,18.312-40.4,31.34-.045.04-.078.08-.045.085h0a4.987,4.987,0,0,1-.589-.151A178.447,178.447,0,0,0,81.77,98.6c-.942-.106-1.872-.174-2.773-.231A371.146,371.146,0,0,1,168.128,10.8a370.1,370.1,0,0,1,89.159,87.613c-12.126.791-23.621,3.922-34.375,7.075m-4.5,328.479c-13.4-4.038-27.077-7.8-39.586-14.222l-1.473-.75,2.257-1.619c40.387-28.932,72.636-81.626,75.48-131.8.007-.05.007-.1.012-.156a128.861,128.861,0,0,0-.078-15.353,174.542,174.542,0,0,0-20.591-71.3c-7.143-13.36-17.353-26.211-32.136-40.432a191.962,191.962,0,0,0-23.672-19.6,215.967,215.967,0,0,1,39-18.708c.078-.028.318-.118.279-.158a1.793,1.793,0,0,1,.158.174c1.244,1.5,2.532,2.969,3.838,4.453,2.313,2.639,4.7,5.367,6.783,8.229,44.778,61.722,62.77,142.856,40.689,216.673a159.158,159.158,0,0,1-11.881,28.243,332.58,332.58,0,0,1-36.823,55.528c-.919,1.124-1.171,1.124-2.259.794M118.19,120.141c.056-.033.141-.073.214-.106a211.382,211.382,0,0,1,39.631,18.955C129.774,159.022,103.991,186,91.09,222.857c-10.778,30.808-11.4,64.96-2.745,96.356,8.632,31.324,27.145,57.415,49.271,80.656q4.958,5.219,10.307,10.05c1.154,1.042,9.8,9.551,10.984,8.962l-.318.186c-9.921,5.64-21.05,9-31.856,12.256-1.216.363-2.436.711-3.663,1.058-1.944.556-3.96,1.121-5.916,1.765-.582.186-.594.2-1.07-.391a356.889,356.889,0,0,1-34.354-50.5A188.715,188.715,0,0,1,57.51,292.9c-.509-32.073,3.5-60.877,12.262-88.066,8.027-24.911,21.005-49.306,39.664-74.58a102.521,102.521,0,0,1,7.013-8.2Zm54.56,356.022-4.33,3.255c-.134.1-.231.168-.3.207-3.95-3.159-8.073-6.118-12.1-9.008-6.615-4.755-13.461-9.673-19.4-15.393-2.453-2.363-4.846-4.833-7.169-7.231l-1.267-1.3A180.69,180.69,0,0,0,154.853,433l4.184-2.5c2.862-1.7,5.821-3.456,8.7-5.254.37-.236.375-.231.867.055,12.239,6.98,24.35,14.6,37.228,20.5.068.026.134.061.2.09.566.252,1.136.469,1.708.693l.728.287c-.886.745-1.821,1.551-2.672,2.415a168.044,168.044,0,0,1-22.72,19.262c-3.468,2.438-6.912,5.03-10.329,7.607M162.431,81.771q2.848-1.965,5.713-3.96c16.413,10.43,29.694,21.085,40.566,32.544a214.331,214.331,0,0,0-40.19,20.917l.285.431-.308-.426a.779.779,0,0,1-.5.2,211.2,211.2,0,0,0-40.622-21.191q1.848-1.731,3.663-3.456l.123-.113c4.532-4.29,8.806-8.34,13.445-12.043,5.557-4.436,11.544-8.569,17.337-12.564Zm5.736,63.757c25.538,16.708,42.279,43.631,54.009,65.218a146.675,146.675,0,0,1,17.954,68.613c-.454,34.04-10.587,64.563-30.961,93.31-11.136,15.713-23.319,28.176-37.244,38.1-3.826,2.728-3.831,2.733-7.629-.028-22.944-16.675-41.127-39.317-54.056-67.291a150.593,150.593,0,0,1-14.025-61.785,147.011,147.011,0,0,1,11.728-58.328c14.677-35.3,34.926-61.483,60.188-77.829a.141.141,0,0,1,.035.023m163.939,83.95a288.133,288.133,0,0,0-27.845-83.749c-20.738-40.543-51.2-75.659-84.786-106.1-14.737-13.36-30.287-27.072-46.861-38.123a7.446,7.446,0,0,0-9,.01c-5.287,3.552-10.637,7.489-16.345,12.043-24.6,19.584-46.644,42.415-63.1,60.11a367.792,367.792,0,0,0-32.264,39.211C18.3,160.759.351,218.113,0,278.749-.146,306,4.1,334.423,13.021,365.65a289.685,289.685,0,0,0,10.79,30.466c28.019,67.19,78.3,124.707,141.589,161.958a5.437,5.437,0,0,0,2.768.857,5.059,5.059,0,0,0,2.766-.919c2.942-1.911,5.9-3.788,8.867-5.658,4.622-2.924,9.4-5.954,14.01-9.068,13.494-9.108,25.795-20,37.7-30.539l4.158-3.68a196.568,196.568,0,0,0,15.959-15.921c19.644-21.766,35.077-44.105,47.186-68.3C312.245,398,321.1,375.206,326.679,353.091a299.936,299.936,0,0,0,5.428-123.614" transform="translate(0)" fill="#003886"/>
</svg>
