<svg xmlns="http://www.w3.org/2000/svg" width="224.778" height="48.142" viewBox="0 0 224.778 48.142"><path d="M20.14,5.5,23.314,0l9,5.2-3.173,5.5a1.3,1.3,0,0,0,1.37,1.926l6.08-1.173,1.968,10.2-6.08,1.172A11.689,11.689,0,0,1,20.14,5.5Z" transform="translate(3.774)" fill="#3a724f" fill-rule="evenodd"/><path d="M18.417,38.4l-3.174,5.5-9-5.194,3.174-5.5A1.3,1.3,0,0,0,8.047,31.28L1.968,32.452,0,22.251l6.08-1.172A11.689,11.689,0,0,1,18.417,38.4Z" transform="translate(0 4.245)" fill="#dc8e43" fill-rule="evenodd"/><path d="M18.644,5.5,15.472,0l-9,5.2,3.174,5.5a1.3,1.3,0,0,1-1.371,1.926L2.2,11.443.23,21.646l6.079,1.172A11.688,11.688,0,0,0,18.645,5.5Z" transform="translate(0.047)" fill="#14424c" fill-rule="evenodd"/><path d="M19.92,38.4l3.171,5.5,9-5.194-3.174-5.5a1.3,1.3,0,0,1,1.371-1.926l6.079,1.172,1.968-10.2-6.08-1.172A11.689,11.689,0,0,0,19.918,38.4Z" transform="translate(3.729 4.245)" fill="#c85d1b" fill-rule="evenodd"/><path d="M187.061,34.458V24.228a7.468,7.468,0,0,1,.979-3.815,7.08,7.08,0,0,1,2.87-2.7,9.371,9.371,0,0,1,4.423-.978,8.7,8.7,0,0,1,2.364.3,7.6,7.6,0,0,1,1.958.776,5.824,5.824,0,0,1,1.554,1.148h.067a6.619,6.619,0,0,1,1.553-1.148,8.151,8.151,0,0,1,1.993-.776,9.076,9.076,0,0,1,2.4-.3,9.357,9.357,0,0,1,4.423.978,7.076,7.076,0,0,1,2.869,2.7,7.258,7.258,0,0,1,1.013,3.815v10.23h-5.268V24.4a2.728,2.728,0,0,0-.438-1.519A3.2,3.2,0,0,0,208.7,21.73a3.018,3.018,0,0,0-1.621-.439,3.1,3.1,0,0,0-2.768,1.587,2.888,2.888,0,0,0-.406,1.519V34.458h-5.233V24.4a2.728,2.728,0,0,0-.439-1.519,3.111,3.111,0,0,0-1.148-1.148,3.019,3.019,0,0,0-1.621-.439,3.1,3.1,0,0,0-2.768,1.587,2.9,2.9,0,0,0-.406,1.519V34.458h-5.233Zm-11.447.406a9.927,9.927,0,0,1-4.625-1.013,7.6,7.6,0,0,1-2.972-2.8,7.681,7.681,0,0,1-1.047-3.951v-9.96H172.2v9.826a3.375,3.375,0,0,0,.438,1.689,3.6,3.6,0,0,0,1.182,1.216,3.509,3.509,0,0,0,1.756.439,3.259,3.259,0,0,0,1.689-.439,3.5,3.5,0,0,0,1.216-1.216,3.376,3.376,0,0,0,.439-1.689V17.137h5.233V27.1a7.883,7.883,0,0,1-1.013,3.951,7.348,7.348,0,0,1-2.937,2.8,9.619,9.619,0,0,1-4.593,1.013Zm-25.5-.406V30.306h8.34a1.339,1.339,0,0,0,.608-.136,1.36,1.36,0,0,0,.438-.438,1.119,1.119,0,0,0,0-1.182,1.083,1.083,0,0,0-.438-.406,1.124,1.124,0,0,0-.608-.168h-3.039a8.386,8.386,0,0,1-3.073-.54,4.877,4.877,0,0,1-2.162-1.756,5.745,5.745,0,0,1-.776-3.14,5.256,5.256,0,0,1,.709-2.7A5.729,5.729,0,0,1,152.1,17.88a5.5,5.5,0,0,1,2.8-.743h8.339v4.187h-7.529a1.167,1.167,0,0,0-.81.3,1.012,1.012,0,0,0-.3.743,1.047,1.047,0,0,0,1.115,1.114h2.972a8.285,8.285,0,0,1,3.241.573,4.216,4.216,0,0,1,2.128,1.757,5.741,5.741,0,0,1,.776,3.139,5.135,5.135,0,0,1-.776,2.768,5.552,5.552,0,0,1-2.027,1.993,5.434,5.434,0,0,1-2.836.743h-9.083Zm-11.4-17.726a9.948,9.948,0,0,1,3.883.709,7.715,7.715,0,0,1,2.9,1.958,8.417,8.417,0,0,1,1.857,2.972A10.485,10.485,0,0,1,148,26.119a9.4,9.4,0,0,1-1.081,4.558,7.788,7.788,0,0,1-2.9,3.073,8.242,8.242,0,0,1-4.322,1.114,7.253,7.253,0,0,1-1.993-.27,6.394,6.394,0,0,1-1.687-.777,4.694,4.694,0,0,1-1.249-1.249h-.1v9.219h-5.233V26.118a10.167,10.167,0,0,1,1.148-4.963,8.023,8.023,0,0,1,3.241-3.242,9.8,9.8,0,0,1,4.9-1.181Zm0,4.524a3.741,3.741,0,0,0-2.127.608,3.7,3.7,0,0,0-1.352,1.621,5.822,5.822,0,0,0,0,4.591,3.972,3.972,0,0,0,1.352,1.621,3.906,3.906,0,0,0,2.127.574A3.747,3.747,0,0,0,140.8,29.7a3.968,3.968,0,0,0,1.352-1.621,5.466,5.466,0,0,0,0-4.591,3.691,3.691,0,0,0-1.352-1.621,3.581,3.581,0,0,0-2.093-.608Zm-17.238,13.2V17.137h5.268V34.458Zm2.633-19.279a3.114,3.114,0,0,1-3.073-3.073,2.952,2.952,0,0,1,.912-2.16,2.941,2.941,0,0,1,4.322,0,3.018,3.018,0,0,1,0,4.322A2.954,2.954,0,0,1,124.105,15.179ZM110.024,34.864a9.7,9.7,0,0,1-4.795-1.182,8.731,8.731,0,0,1-4.592-7.868,8.816,8.816,0,0,1,1.216-4.625,8.981,8.981,0,0,1,3.376-3.241,9.487,9.487,0,0,1,4.795-1.216,9.3,9.3,0,0,1,4.761,1.216,8.726,8.726,0,0,1,3.342,3.241,8.63,8.63,0,0,1,1.249,4.625,8.9,8.9,0,0,1-4.592,7.868A9.63,9.63,0,0,1,110.024,34.864Zm0-4.558a3.813,3.813,0,0,0,2.162-.608,4.121,4.121,0,0,0,1.418-1.621,5.058,5.058,0,0,0,.507-2.3,4.986,4.986,0,0,0-.507-2.263,4.12,4.12,0,0,0-1.418-1.62,3.8,3.8,0,0,0-2.162-.608,3.961,3.961,0,0,0-2.194.608,4.126,4.126,0,0,0-1.419,1.621,4.988,4.988,0,0,0-.505,2.263,5.071,5.071,0,0,0,.505,2.3A4.128,4.128,0,0,0,107.83,29.7,3.971,3.971,0,0,0,110.024,30.306ZM83.629,41.314V36.822h8.643a1.146,1.146,0,0,0,.845-.337,1,1,0,0,0,.337-.777V31.893h-.1A7.931,7.931,0,0,1,91.9,33.209a5.343,5.343,0,0,1-1.689.811,7.249,7.249,0,0,1-2.059.27A7.522,7.522,0,0,1,81.2,30.137a9.572,9.572,0,0,1-1.012-4.457,9.633,9.633,0,0,1,1.047-4.49,8.187,8.187,0,0,1,3.14-3.241,10.875,10.875,0,0,1,9.927-.034,7.972,7.972,0,0,1,3.241,3.274,10.1,10.1,0,0,1,1.148,4.931V36.248a4.9,4.9,0,0,1-1.384,3.68,4.993,4.993,0,0,1-3.748,1.384H83.629ZM89.436,29.9a3.924,3.924,0,0,0,2.094-.54,3.827,3.827,0,0,0,1.349-1.519,4.615,4.615,0,0,0,.473-2.094,5.2,5.2,0,0,0-.472-2.228,3.734,3.734,0,0,0-1.352-1.587,3.583,3.583,0,0,0-2.094-.608,3.845,3.845,0,0,0-2.093.574,3.782,3.782,0,0,0-1.35,1.553,5,5,0,0,0-.472,2.2,4.905,4.905,0,0,0,.472,2.162A3.7,3.7,0,0,0,89.436,29.9Zm-19.89,4.963a9.7,9.7,0,0,1-4.794-1.182,8.729,8.729,0,0,1-4.593-7.868,8.816,8.816,0,0,1,1.216-4.625,8.978,8.978,0,0,1,3.377-3.241,9.479,9.479,0,0,1,4.794-1.216,9.3,9.3,0,0,1,4.761,1.216,8.728,8.728,0,0,1,3.342,3.241A8.63,8.63,0,0,1,78.9,25.815a8.9,8.9,0,0,1-4.592,7.868A9.63,9.63,0,0,1,69.547,34.864Zm0-4.558a3.815,3.815,0,0,0,2.162-.608,4.128,4.128,0,0,0,1.418-1.621,5.073,5.073,0,0,0,.505-2.3,5,5,0,0,0-.505-2.263,4.127,4.127,0,0,0-1.418-1.62,3.8,3.8,0,0,0-2.162-.608,3.961,3.961,0,0,0-2.194.608,4.126,4.126,0,0,0-1.419,1.621,4.988,4.988,0,0,0-.505,2.263,5.071,5.071,0,0,0,.505,2.3A4.128,4.128,0,0,0,67.353,29.7,3.971,3.971,0,0,0,69.547,30.306Zm-16.76,4.152a7.4,7.4,0,0,1-3.849-.978,6.936,6.936,0,0,1-2.566-2.6,7.179,7.179,0,0,1-.912-3.579V10.823h5.672V27.705a2.006,2.006,0,0,0,.574,1.419,1.874,1.874,0,0,0,1.418.608H59.37v4.726Z" transform="translate(9.253 1.832)" fill="#14424c"/></svg>