<svg xmlns="http://www.w3.org/2000/svg" width="184.384" height="41.906" viewBox="0 0 184.384 41.906"><path d="M15.715,29.334A5.238,5.238,0,0,1,10.476,24.1V0H0V24.1A15.715,15.715,0,0,0,15.715,39.81H27.239V29.334ZM47.144,10.476a9.429,9.429,0,1,0,9.429,9.429A9.429,9.429,0,0,0,47.144,10.476ZM27.239,19.905A19.905,19.905,0,1,1,47.144,39.81,19.906,19.906,0,0,1,27.239,19.905Zm133.05-9.429a9.429,9.429,0,1,0,9.429,9.429A9.429,9.429,0,0,0,160.288,10.476Zm-19.905,9.429A19.905,19.905,0,1,1,160.288,39.81,19.906,19.906,0,0,1,140.383,19.905ZM89.049,0a19.905,19.905,0,0,0,0,39.81h29.334a19.9,19.9,0,0,0,5.923-.9l5.6,2.992,6.043-11.319a19.912,19.912,0,0,0,2.338-9.361V19.905A19.906,19.906,0,0,0,118.383,0Zm38.763,19.905a9.429,9.429,0,0,0-9.429-9.429H89.049a9.429,9.429,0,0,0,0,18.857h29.334a9.429,9.429,0,0,0,9.429-9.356Z" fill="#30656f" fill-rule="evenodd"/><path d="M176.238,2.619A2.619,2.619,0,1,1,173.619,0a2.619,2.619,0,0,1,2.619,2.619Z" transform="translate(8.146)" fill="#30656f"/></svg>