<svg xmlns="http://www.w3.org/2000/svg" xmlns:xlink="http://www.w3.org/1999/xlink" width="1570.15" height="934.733" viewBox="0 0 1570.15 934.733"><defs><clipPath id="a"><rect width="934.733" height="1570.15" fill="#e7e7f2" stroke="#fdf9f6" stroke-width="20"/></clipPath></defs><g transform="translate(0 934.733) rotate(-90)" opacity="0.515"><g transform="translate(0)" clip-path="url(#a)"><path d="M336.2,452.808c-47.4,114.026-70.742,230.215-69.4,345.244,1.451,126.608,29.384,249.629,83.007,365.739,69.265,149.951,164.089,274,282.177,369.326v34.791H584.143c-5.486-5.17-9.628-9.153-11.263-10.63-21.075-19.018-41.464-38.932-61.035-59.479-130.96-137.581-240.555-292.042-291.647-477.444-51.223-185.85-47.557-388,16.248-570.369,66.786-190.861,192-337.015,334.3-449.986H631.99V35.714C510.315,132.886,411.007,272.84,336.2,452.808" transform="translate(302.743)" fill="#e7e7f2" stroke="#fdf9f6" stroke-width="20"/><path d="M434.686,1570.15H344.478C180.6,1311,92.185,1005.874,95.35,710.033a1221.286,1221.286,0,0,1,26.8-240.133C160.342,290.987,223.8,136.209,315.12,0H423.687c-74.778,115.161-129.641,228.316-166.7,343.319C205.13,504.243,181.364,674.741,184.4,864.627c3.033,190.782,51.276,370.75,143.383,534.813q49.3,87.795,106.9,170.71" transform="translate(156.017)" fill="#e7e7f2" stroke="#fdf9f6" stroke-width="20"/><path d="M210.51,1420.489a1487.7,1487.7,0,0,0,60.9,149.661H183.395q-22.473-46.687-42.44-94.561A1719.577,1719.577,0,0,1,77.044,1295.2C24.317,1110.378-.9,942.122.024,780.828,1.607,503.267,65.491,237.364,186.375,0H295.707c-52.964,112.444-95.615,238.313-129.694,382.567-84.7,358.274-69.74,707.475,44.5,1037.922" transform="translate(0)" fill="#e7e7f2" stroke="#fdf9f6" stroke-width="20"/></g></g></svg>