<svg xmlns="http://www.w3.org/2000/svg" width="633.099" height="629.347" viewBox="0 0 633.099 629.347"><path d="M633.1,629.348h0c-32.133-12.524-63.292-26.374-92.61-41.166-24.631-12.588-48.56-25.65-71.12-38.822-22.618-13.205-44.591-26.947-65.31-40.845s-40.871-28.414-59.866-43.123c-18.966-14.688-37.4-30.048-54.788-45.656l-26.132-24.348c-14.656-14.125-29.083-28.792-42.88-43.591-13.761-14.761-27.266-30.052-40.139-45.449-12.848-15.366-25.413-31.25-37.345-47.211-11.916-15.938-23.522-32.383-34.5-48.877s-21.6-33.455-31.593-50.448S57.187,125.352,48.182,107.89s-17.63-35.4-25.624-53.3C14.555,36.669,6.965,18.3,0,0H69.621C81.963,25.622,95.9,51.907,111.033,78.129c15.107,26.168,31.938,53.181,50.027,80.288,15.309,22.949,31.4,45.5,47.823,67.038,16.41,21.517,33.607,42.61,51.114,62.693s35.784,39.688,54.356,58.306,37.929,36.738,57.551,53.877,40.043,33.761,60.7,49.407,42.124,30.754,63.8,44.9,44.173,27.72,66.848,40.342c22.691,12.631,46.192,24.658,69.851,35.748v58.625Zm0-183c-26.519-11.433-52.806-24.121-78.13-37.713-25.346-13.6-50.292-28.416-74.144-44.024-23.943-15.667-47.318-32.487-69.477-49.991C389.042,297,367.467,278.288,347.22,259a763.648,763.648,0,0,1-98.391-114.629c-16.594-23.735-31.989-47.881-45.758-71.767C189.271,48.668,176.671,24.24,165.623,0h67.554c4.89,9.688,10.027,19.364,15.267,28.76,51.5,92.352,119.358,175.908,207.452,255.44,13.422,12.12,27.371,23.821,41.46,34.778s28.676,21.453,43.394,31.224,29.941,19.064,45.268,27.637,31.165,16.652,47.081,24.017v44.491Zm0-165.522h0v0c-9.5-4.285-18.969-8.888-28.142-13.681a616.829,616.829,0,0,1-76.845-47.667A616.451,616.451,0,0,1,459,161.01a599.143,599.143,0,0,1-59.609-68.049c-9.047-12.074-17.692-24.6-25.694-37.237-8.08-12.757-15.7-25.938-22.661-39.177C348.169,11.084,345.363,5.518,342.7,0H408.39c7.519,14.533,15.667,28.786,24.218,42.363s17.713,26.811,27.253,39.367S479.568,106.493,490.072,118s21.651,22.642,33.094,33.062a561.177,561.177,0,0,0,52.713,42.5A555.511,555.511,0,0,0,633.1,229.173Z" transform="translate(633.098 629.348) rotate(180)" fill="#faedec" opacity="0.8"/></svg>