<svg xmlns="http://www.w3.org/2000/svg" width="265" height="297.765" viewBox="0 0 265 297.765"><path d="M-777.5,400.27a263.759,263.759,0,0,1,8.756-30.255c18.6-52.264,52.187-99.529,96.416-133.181v35.351A252.011,252.011,0,0,0-719,323.371a266.345,266.345,0,0,0-36.2,76.9Zm-75.9,0c14.6-55.527,38.831-107.992,71.309-153.333a366.714,366.714,0,0,1,47.94-54.44A439.379,439.379,0,0,1-672.323,144.1v35.4q-3.472,2.508-6.869,5.081c-40.463,30.645-75.667,68.482-107.618,115.7A338.29,338.29,0,0,0-833.2,400.27Zm-83.926,0c3.4-13.551,7.289-26.763,11.6-39.446,18.485-53.45,40.728-98.433,67.971-137.4l.372-.529q.643-.917,1.29-1.83A530.486,530.486,0,0,1-740.987,102.5h51.164a17.529,17.529,0,0,1,4.4.558,644.669,644.669,0,0,0-61.269,48.645c-78.587,70.018-133.534,153.578-163.475,248.562Z" transform="translate(937.324 -102.505)" fill="#3b4990"/></svg>