<svg xmlns="http://www.w3.org/2000/svg" width="296.93" height="472.001" viewBox="0 0 296.93 472.001"><path d="M-1558.052,557.5h-26.785c-3.543-3.428-7.081-6.994-10.516-10.6-22.75-23.9-40.94-46.749-55.609-69.851a325.02,325.02,0,0,1-21.249-38.972,282.882,282.882,0,0,1-15.41-42.226,312.091,312.091,0,0,1-8.872-44.887,312,312,0,0,1-2.205-45.751,303.267,303.267,0,0,1,4.619-45.544,288.787,288.787,0,0,1,11.6-44.267,280.015,280.015,0,0,1,19.108-42.692,297.975,297.975,0,0,1,24.814-37.73,336.485,336.485,0,0,1,29.293-33.109c5.2-5.167,10.738-10.339,16.452-15.373h32.808a259.217,259.217,0,0,0-24.869,23.422,296.632,296.632,0,0,0-24.817,30.575,353.74,353.74,0,0,0-22.036,35.486A430.116,430.116,0,0,0-1650.92,216.3c-14.994,36.068-22.38,72.817-21.956,109.226a281.986,281.986,0,0,0,26.262,115.709,362.5,362.5,0,0,0,17.816,33.824,331.6,331.6,0,0,0,20.744,30.707,310.438,310.438,0,0,0,23.6,27.509,299.117,299.117,0,0,0,26.4,24.227Zm-116.469,0h-27.731a515.973,515.973,0,0,1-31.108-61.523,516.77,516.77,0,0,1-22.523-64.751,501.482,501.482,0,0,1-13.531-66.57,472.36,472.36,0,0,1-4.126-66.981,386.449,386.449,0,0,1,8.479-75.971c3.011-14.1,6.568-27.911,10.574-41.048,4.017-13.17,8.609-26.073,13.648-38.35,5.048-12.3,10.7-24.346,16.8-35.816,3.579-6.731,7.418-13.457,11.411-19.991h34.495c-2.8,4.588-5.522,9.219-8.1,13.767-5.11,9-9.912,18.119-14.272,27.1s-8.4,18.086-12.035,27.092c-3.618,8.973-6.935,18.124-9.859,27.2-16.413,50.935-23.925,104.883-22.964,164.927.959,60.367,16.221,117.294,45.362,169.2,7.933,14.128,16.507,28.163,25.483,41.715Zm-98.263,0h-28.011c-2.656-5.844-5.238-11.774-7.675-17.625a544.043,544.043,0,0,1-20.219-57.071c-16.335-57.258-24.308-109.4-24.375-159.4v-1.257c0-.55,0-1.226.007-2.072a577.22,577.22,0,0,1,4.046-65.084,558.215,558.215,0,0,1,11.279-63.2,543.684,543.684,0,0,1,18.356-60.817c5.517-15.019,11.8-29.982,18.663-44.473h35.108c-2,4.6-3.977,9.323-5.87,14.044-3.77,9.4-7.4,19.237-10.792,29.242-3.383,9.979-6.638,20.452-9.672,31.127-3.023,10.638-5.918,21.8-8.6,33.162-26.8,113.354-22.06,223.833,14.078,328.368,4.108,11.89,8.711,23.685,13.68,35.056Z" transform="translate(1853.564 -86)" fill="#faedec" stroke="rgba(0,0,0,0)" stroke-miterlimit="10" stroke-width="1"/></svg>