<svg xmlns="http://www.w3.org/2000/svg" xmlns:xlink="http://www.w3.org/1999/xlink" width="454.302" height="270.453" viewBox="0 0 454.302 270.453"><defs><clipPath id="a"><rect width="270.453" height="454.302" fill="#FAEDEB"/></clipPath></defs><g transform="translate(0 270.453) rotate(-90)"><g transform="translate(0)" clip-path="url(#a)"><path d="M228.651,131.014c-13.714,32.992-20.468,66.61-20.079,99.892a257.864,257.864,0,0,0,24.017,105.822c20.041,43.386,47.477,79.278,81.644,106.86v10.066H300.389c-1.587-1.5-2.786-2.648-3.259-3.076-6.1-5.5-12-11.264-17.66-17.21-37.892-39.807-69.6-84.5-84.384-138.142-14.821-53.773-13.76-112.263,4.7-165.029C219.111,74.974,255.339,32.687,296.512,0h17.721V10.333c-35.205,28.115-63.939,68.609-85.582,120.681" transform="translate(-43.78)" fill="#FAEDEB"/><path d="M193.474,454.3h-26.1c-47.416-74.982-73-163.266-72.082-248.863a353.364,353.364,0,0,1,7.754-69.479C114.1,84.193,132.458,39.41,158.879,0h31.412c-21.636,33.32-37.51,66.06-48.233,99.335-15,46.561-21.88,95.893-21,150.834.878,55.2,14.836,107.272,41.486,154.741q14.264,25.4,30.931,49.393" transform="translate(-22.562)" fill="#FAEDEB"/><path d="M60.908,411A430.433,430.433,0,0,0,78.53,454.3H53.063q-6.5-13.508-12.279-27.36a497.552,497.552,0,0,1-18.492-52.193C7.036,321.273-.26,272.59.007,225.922.465,145.614,18.949,68.678,53.925,0H85.559C70.234,32.534,57.894,68.953,48.033,110.691,23.528,214.353,27.855,315.389,60.908,411" transform="translate(0)" fill="#FAEDEB"/></g></g></svg>