<svg xmlns="http://www.w3.org/2000/svg" width="326.773" height="270.439" viewBox="0 0 326.773 270.439"><path d="M182.02,270.439c29.644-50.064,74.068-91.208,125.585-118.108q9.478-4.95,19.166-9.112v26.6A290.1,290.1,0,0,0,264.84,213a274.152,274.152,0,0,0-47.75,57.44Zm-93.6,0a494.674,494.674,0,0,1,32.973-53.946,399.079,399.079,0,0,1,51.447-59.907c43.818-41.714,96.5-75.674,153.932-99.8V79.905a368.9,368.9,0,0,0-97.107,63.511c-44.013,39.716-78.346,81.332-104.793,127.023ZM0,270.439c29.482-68.531,73.061-131.3,128.938-185.124l13.68-12.738C172.136,46.1,205.949,22.154,245.137,0h63.635q.229,0,.457.006C215.554,46.726,137.021,116.981,75.5,209.154c-13.961,20.91-26.221,41.267-36.894,61.286Z" transform="translate(326.772 270.439) rotate(180)" fill="#f2cfc9" opacity="0.6"/></svg>