<svg xmlns="http://www.w3.org/2000/svg" width="394.417" height="536.87" viewBox="0 0 394.417 536.87"><path d="M848.361,754.5H810.4c-1.8-3.843-3.581-7.729-5.3-11.552-7.7-17.157-14.9-34.811-21.388-52.47-6.475-17.627-12.4-35.675-17.6-53.643s-9.822-36.3-13.723-54.5c-3.906-18.224-7.187-36.737-9.75-55.026-2.573-18.371-4.485-36.955-5.683-55.237-1.206-18.408-1.718-36.955-1.523-55.126a605.172,605.172,0,0,1,13.276-118.971c4.883-22.872,10.683-45.246,17.241-66.5,1.231-3.991,2.514-8.021,3.813-11.979h51.066c-1.842,5.233-3.631,10.537-5.316,15.767-25.7,79.76-37.465,164.243-35.962,258.277C781.03,586.5,804.18,674.3,848.36,754.5Zm-138.023,0H664.552c-5.714-15.935-10.923-31.961-15.483-47.634C623.462,617.1,610.976,535.371,610.9,457v-1.472c0-1.5.007-2.549.013-3.5.139-24.365,1.266-48.926,3.351-73,2.078-23.977,5.159-48.071,9.157-71.61,3.989-23.486,8.993-47.016,14.872-69.936,1.531-5.969,3.154-12.019,4.823-17.981h58.9c-3.073,11.476-6.056,23.322-8.865,35.213-5.066,21.429-9.471,43.1-13.094,64.406-3.62,21.291-6.559,42.81-8.734,63.957s-3.647,42.485-4.377,63.456-.737,42.128-.022,62.9,2.172,41.737,4.331,62.3,5.08,41.31,8.682,61.645,7.987,40.848,13.03,60.938c5.047,20.106,10.893,40.354,17.376,60.18Zm293.43,0H968.134l-.014-.017-.033-.041c-7.419-9.239-14.541-18.585-21.168-27.779-6.891-9.562-13.461-19.254-19.528-28.809-6.289-9.9-12.235-19.971-17.672-29.919-5.615-10.27-10.865-20.738-15.6-31.111-4.876-10.676-9.357-21.572-13.316-32.386-4.068-11.107-7.706-22.459-10.815-33.741a488.1,488.1,0,0,1-17.346-141.938,474.866,474.866,0,0,1,7.233-71.321,452.248,452.248,0,0,1,18.163-69.322c3.8-10.862,8.089-21.708,12.746-32.237,4.544-10.273,9.563-20.527,14.919-30.478,1.053-1.956,2.141-3.941,3.234-5.9h52.381c-1.12,2-2.262,4.058-3.393,6.129a673.381,673.381,0,0,0-30.465,63.885C903.973,346,892.406,403.552,893.076,460.56A441.554,441.554,0,0,0,934.2,641.76a567.337,567.337,0,0,0,28.093,53.291A518.539,518.539,0,0,0,995.029,743.4c2.843,3.722,5.783,7.456,8.737,11.1Z" transform="translate(-610.397 -219)" fill="#f2f0f4" stroke="rgba(0,0,0,0)" stroke-miterlimit="10" stroke-width="1"/></svg>