<svg id="Group_2467" data-name="Group 2467" xmlns="http://www.w3.org/2000/svg" xmlns:xlink="http://www.w3.org/1999/xlink" width="1458.276" height="799.788" viewBox="0 0 1458.276 799.788">
  <defs>
    <clipPath id="clip-path">
      <rect id="Rectangle_182" data-name="Rectangle 182" width="1458.276" height="799.788" fill="#f1eff3"/>
    </clipPath>
  </defs>
  <g id="Group_2461" data-name="Group 2461" clip-path="url(#clip-path)">
    <path id="Path_10150" data-name="Path 10150" d="M654.667,308.328c178.052-2.846,338.031,19.437,489.1,68.118,106.008,34.161,208.978,83.743,314.51,151.465V438.24C1331.766,353.856,1189.3,295.545,1022.82,260a1139.639,1139.639,0,0,0-223.57-24.945C524.69,232.132,240.935,314.047,0,465.778v72.066c49.179-33.814,100.336-65.681,152.186-94.795,154.146-86.544,323.2-131.87,502.481-134.721" fill="#f1eff3"/>
    <path id="Path_10151" data-name="Path 10151" d="M85.354,131.427C56.692,143.381,27.993,156.232,0,169.645v71.293a1401.761,1401.761,0,0,1,133.316-53.811h0a1674.659,1674.659,0,0,1,550.05-92.4q208.677,0,423.314,50.648c132.652,31.337,247.768,70.061,351.6,118.286V172.351a1582.725,1582.725,0,0,0-347.15-127.172C988.85,15.948,861.657.755,733.081.023c-150.263-.871-307.162,22.636-479.6,71.835A1609.039,1609.039,0,0,0,85.354,131.427" fill="#f1eff3"/>
    <path id="Path_10152" data-name="Path 10152" d="M84.932,799.788C164.8,719.016,261.314,652.221,372.9,600.679c109.232-50.447,224.986-76.718,344.049-78.083,108.284-1.274,217.575,20.7,324.82,65.277,134.987,56.108,246.371,127.193,332.292,211.915h73.086c-52.918-64.525-110.038-120.579-170-166.8-73.113-56.356-152.618-99.779-236.307-129.063C874.564,445.754,686.2,440.394,510.453,488.833,428.482,511.422,350.419,546.669,271.8,596.589c-68,43.181-135.29,96.751-205.7,163.77C52.6,773.225,39.449,786.431,26.818,799.788Z" fill="#f1eff3"/>
  </g>
</svg>
