<svg xmlns="http://www.w3.org/2000/svg" width="296.93" height="472" viewBox="0 0 296.93 472"><path d="M295.012,0H268.227c-3.543,3.428-7.081,6.994-10.516,10.6-22.75,23.9-40.94,46.749-55.609,69.851a325.022,325.022,0,0,0-21.249,38.972,282.882,282.882,0,0,0-15.41,42.226,311.737,311.737,0,0,0-11.077,90.637,303.267,303.267,0,0,0,4.619,45.544,288.787,288.787,0,0,0,11.6,44.267,280.015,280.015,0,0,0,19.108,42.692,297.977,297.977,0,0,0,24.814,37.73A336.481,336.481,0,0,0,243.8,455.628c5.2,5.167,10.738,10.339,16.452,15.373h32.808a259.22,259.22,0,0,1-24.869-23.422A296.628,296.628,0,0,1,243.373,417a353.739,353.739,0,0,1-22.036-35.486A430.116,430.116,0,0,1,202.144,341.2c-14.994-36.068-22.38-72.817-21.956-109.226A281.986,281.986,0,0,1,206.45,116.269a362.5,362.5,0,0,1,17.816-33.824,331.6,331.6,0,0,1,20.744-30.707,310.438,310.438,0,0,1,23.6-27.509A299.117,299.117,0,0,1,295.01,0ZM178.543,0H150.812A515.815,515.815,0,0,0,97.181,126.274a501.482,501.482,0,0,0-13.531,66.57,472.36,472.36,0,0,0-4.126,66.981A386.448,386.448,0,0,0,88,335.8c3.011,14.1,6.568,27.911,10.574,41.048,4.017,13.17,8.609,26.073,13.648,38.35,5.048,12.3,10.7,24.346,16.8,35.816,3.579,6.731,7.418,13.457,11.411,19.991h34.495c-2.8-4.588-5.522-9.219-8.1-13.767-5.11-9-9.912-18.119-14.272-27.1s-8.4-18.086-12.035-27.092c-3.618-8.973-6.935-18.124-9.859-27.2C114.249,324.908,106.737,270.96,107.7,210.916c.959-60.367,16.221-117.294,45.362-169.2C160.993,27.588,169.566,13.553,178.542,0ZM80.28,0H52.269c-2.656,5.844-5.238,11.774-7.675,17.625A544.043,544.043,0,0,0,24.375,74.7C8.04,131.954.067,184.095,0,234.1v1.257c0,.55,0,1.226.007,2.072a577.22,577.22,0,0,0,4.046,65.084,558.214,558.214,0,0,0,11.279,63.2,543.685,543.685,0,0,0,18.356,60.817c5.517,15.019,11.8,29.982,18.663,44.473H87.459c-2-4.6-3.977-9.323-5.87-14.044-3.77-9.4-7.4-19.237-10.792-29.242-3.383-9.979-6.638-20.452-9.672-31.127-3.023-10.638-5.918-21.8-8.6-33.162C25.725,250.071,30.461,139.592,66.6,35.058,70.707,23.168,75.31,11.373,80.279,0Z" transform="translate(296.43 471.5) rotate(180)" fill="#faedec" stroke="rgba(0,0,0,0)" stroke-miterlimit="10" stroke-width="1"/></svg>