<svg xmlns="http://www.w3.org/2000/svg" width="483.458" height="480.349" viewBox="0 0 483.458 480.349">
  <path id="Subtraction_6" data-name="Subtraction 6" d="M483.458,480.349h0c-24.543-9.56-48.336-20.131-70.719-31.419-18.811-9.609-37.084-19.578-54.313-29.632-17.272-10.079-34.051-20.567-49.873-31.174s-31.21-21.686-45.715-32.913C248.355,344,234.278,332.276,221,320.362L201.05,301.786C189.857,291,178.84,279.81,168.3,268.514c-10.509-11.267-20.822-22.938-30.654-34.689-9.811-11.728-19.406-23.851-28.519-36.034-9.1-12.166-17.963-24.717-26.343-37.306s-16.491-25.534-24.126-38.5S43.671,95.678,36.795,82.35,23.331,55.326,17.227,41.665C11.116,27.989,5.32,13.971,0,0H53.165C62.59,19.556,73.23,39.619,84.789,59.631c11.537,19.975,24.391,40.592,38.2,61.28,11.69,17.515,23.977,34.73,36.519,51.167s25.664,32.522,39.032,47.85,27.327,30.293,41.509,44.5S269.017,292.471,284,305.552s30.578,25.768,46.351,37.71,32.168,23.474,48.718,34.267,33.733,21.158,51.047,30.791,35.275,18.822,53.341,27.285v44.743Zm0-139.673A768.738,768.738,0,0,1,367.175,278.29c-18.283-11.958-36.133-24.8-53.055-38.156-17.033-13.448-33.509-27.73-48.97-42.449a583.009,583.009,0,0,1-75.134-87.492c-12.672-18.116-24.428-36.546-34.943-54.776C144.535,37.146,134.914,18.5,126.476,0h51.585c3.738,7.4,7.66,14.785,11.659,21.952,39.326,70.486,91.145,134.26,158.418,194.964,10.249,9.249,20.9,18.18,31.66,26.545s21.9,16.375,33.137,23.832S435.8,281.844,447.5,288.387s23.8,12.71,35.953,18.331v33.958Zm0-126.335h0c-7.256-3.271-14.486-6.784-21.49-10.442a471.082,471.082,0,0,1-58.682-36.383,470.689,470.689,0,0,1-52.772-44.625,457.354,457.354,0,0,1-45.52-51.939,435.368,435.368,0,0,1-36.926-58.323C265.874,8.458,263.731,4.209,261.7,0h50.165c5.742,11.092,11.964,21.971,18.493,32.334S343.882,52.8,351.167,62.381s15.049,18.9,23.071,27.681,16.534,17.282,25.272,25.235a428.51,428.51,0,0,0,40.253,32.437,424.242,424.242,0,0,0,43.694,27.182v39.425Z" fill="#d6d7e8"/>
</svg>
