<svg id="Group_2478" data-name="Group 2478" xmlns="http://www.w3.org/2000/svg" xmlns:xlink="http://www.w3.org/1999/xlink" width="336.589" height="625.074" viewBox="0 0 336.589 625.074">
  <defs>
    <clipPath id="clip-path">
      <rect id="Rectangle_196" data-name="Rectangle 196" width="336.589" height="625.074" fill="#263a85"/>
    </clipPath>
  </defs>
  <g id="Group_2477" data-name="Group 2477" clip-path="url(#clip-path)">
    <path id="Path_10167" data-name="Path 10167" d="M168.213.02A385.125,385.125,0,0,0,27.431,182.056,343.865,343.865,0,0,0,0,318.452,352.229,352.229,0,0,0,32.8,462.969,396.6,396.6,0,0,0,159.232,620.351c8.874,6.3,8.9,6.3,17.835,0a368.391,368.391,0,0,0,87.1-89.1,375.274,375.274,0,0,0,72.417-218.232A343.036,343.036,0,0,0,294.62,152.533C267.194,102.043,228.04,39.068,168.295,0Z" transform="translate(-0.001)" fill="#263a85"/>
  </g>
</svg>
