<svg xmlns="http://www.w3.org/2000/svg" xmlns:xlink="http://www.w3.org/1999/xlink" width="634.19" height="582.637" viewBox="0 0 634.19 582.637" style="transform: scale(-1,1)">
  <defs>
    <clipPath id="clip-path">
      <rect id="Rectangle_195" data-name="Rectangle 195" width="634.19" height="582.637" fill="#263a85"/>
    </clipPath>
  </defs>
  <g id="Group_2475" data-name="Group 2475" clip-path="url(#clip-path)"  >
    <path id="Path_10165" data-name="Path 10165" d="M634.19,0h-490.8a462.647,462.647,0,0,0-38.229,33.863A395.209,395.209,0,0,0,70.754,72.754,349.674,349.674,0,0,0,41.61,117.07a328.727,328.727,0,0,0-22.441,50.145,339.764,339.764,0,0,0-14.4,56.537A357.6,357.6,0,0,0,0,281.925v.124a366.063,366.063,0,0,0,13.128,97.12,332.281,332.281,0,0,0,18.1,49.594,381.579,381.579,0,0,0,24.958,45.776c17.229,27.134,38.594,53.972,65.317,82.045,7.368,7.735,14.995,15.172,22.682,22.1.353.319,1.009.939,1.919,1.806l.024.022.084.079q.945.9,2.157,2.042H634.19Z" transform="translate(0)" fill="#263a85"/>
  </g>
</svg>
