<svg xmlns="http://www.w3.org/2000/svg" xmlns:xlink="http://www.w3.org/1999/xlink" width="52.082" height="32.471" viewBox="0 0 52.082 32.471"><defs><clipPath id="a"><rect width="52.082" height="32.471" transform="translate(0 0)" fill="#0f1b51" stroke="#253b85" stroke-width="0.6"/></clipPath></defs><g transform="translate(1.257 0.784)"><g transform="translate(-1.257 -0.784)" clip-path="url(#a)"><path d="M14.66,29.32a14.66,14.66,0,1,1,14.66-14.66A14.677,14.677,0,0,1,14.66,29.32m0-28.113A13.453,13.453,0,1,0,28.113,14.66,13.468,13.468,0,0,0,14.66,1.207" transform="translate(2.526 1.575)" fill="#0f1b51" stroke="#253b85" stroke-width="0.6"/><path d="M87.989,29.32a14.66,14.66,0,1,1,14.66-14.66,14.677,14.677,0,0,1-14.66,14.66m0-28.113A13.453,13.453,0,1,0,101.442,14.66,13.468,13.468,0,0,0,87.989,1.207" transform="translate(-53.094 1.575)" fill="#0f1b51" stroke="#253b85" stroke-width="0.6"/></g></g></svg>