<svg xmlns="http://www.w3.org/2000/svg" xmlns:xlink="http://www.w3.org/1999/xlink" width="154.451" height="66.5" viewBox="0 0 154.451 66.5"><defs><clipPath id="a"><rect width="154.451" height="66.5" fill="#fff"/></clipPath></defs><g transform="translate(-0.001)"><path d="M236.066,55.84l.1-21.165.065.1-.033-.1h3.028l7.456,18.136h.033l7.456-18.136h2.865l.1,21.165H255.5L254.626,37.7h-.033L247.267,55.84h-1.986L237.922,37.7,237.6,55.84Z" transform="translate(-189.487 -27.833)" fill="#fff"/><path d="M373.858,55.84V34.675h11.4v1.563h-8.922v8.14h8.173v1.5h-8.173v8.4h9.638V55.84Z" transform="translate(-300.091 -27.833)" fill="#fff"/><path d="M457.523,55.84V34.675H460.1l10.81,17.452-.1-.781V34.675H472.6V55.84H470.45L459.184,37.8h-.033l.163,1.01-.392,17.029Z" transform="translate(-367.248 -27.833)" fill="#fff"/><path d="M564.951,55.84V34.675h11.624v1.563h-9.15v8.433h7.88v1.5h-7.88V55.84Z" transform="translate(-453.479 -27.833)" fill="#fff"/><path d="M641.519,55.84V34.675h11.4v1.563h-8.922v8.14h8.173v1.5h-8.173v8.4h9.638V55.84Z" transform="translate(-514.94 -27.833)" fill="#fff"/><g transform="translate(0.001)"><g transform="translate(0)" clip-path="url(#a)"><path d="M719.669,54.354a6.449,6.449,0,0,1-2.068-1.319q-.667-.7-.667-.83l.814-1.27a3.019,3.019,0,0,0,.619.733,5.9,5.9,0,0,0,1.807,1.172,7.051,7.051,0,0,0,2.914.537,4.322,4.322,0,0,0,3.224-1.188,4.031,4.031,0,0,0,1.172-2.946,3.367,3.367,0,0,0-.586-2.019,4.506,4.506,0,0,0-1.449-1.3,23.37,23.37,0,0,0-2.328-1.107,20.605,20.605,0,0,1-2.736-1.3,5.376,5.376,0,0,1-1.757-1.709,4.977,4.977,0,0,1-.716-2.784,5.53,5.53,0,0,1,1.693-4.249,6.368,6.368,0,0,1,4.526-1.579,7.369,7.369,0,0,1,2.523.407,8.007,8.007,0,0,1,1.807.879,2.972,2.972,0,0,1,.684.537l-.326,1.433a2.729,2.729,0,0,0-.651-.521,7.893,7.893,0,0,0-1.661-.846,6.179,6.179,0,0,0-2.247-.391,3.945,3.945,0,0,0-2.865,1.01,3.632,3.632,0,0,0-1.042,2.735,3.36,3.36,0,0,0,.57,2,4.4,4.4,0,0,0,1.432,1.286,20.894,20.894,0,0,0,2.3,1.074,20.715,20.715,0,0,1,2.767,1.351,5.532,5.532,0,0,1,1.775,1.775,5.333,5.333,0,0,1,.733,2.93,6.048,6.048,0,0,1-.83,3.175,5.708,5.708,0,0,1-2.361,2.165,7.708,7.708,0,0,1-3.549.781,8.72,8.72,0,0,1-3.517-.618" transform="translate(-575.475 -26.64)" fill="#fff"/><path d="M237.8,216.546q-1.736-1.983-1.736-5.922a9.466,9.466,0,0,1,1.721-6.093,6.1,6.1,0,0,1,5.039-2.124,6.974,6.974,0,0,1,2.047.294,9.3,9.3,0,0,1,1.628.651,4.266,4.266,0,0,1,.667.388l-.279,1.271a7.633,7.633,0,0,0-.666-.387,8.509,8.509,0,0,0-1.4-.574,5.6,5.6,0,0,0-1.752-.279,3.991,3.991,0,0,0-3.5,1.582q-1.116,1.581-1.116,5.24,0,3.535,1.178,5.055a3.956,3.956,0,0,0,3.318,1.52,4.492,4.492,0,0,0,2.061-.435,4.944,4.944,0,0,0,1.318-.914q.466-.481.466-.574l.992.651a2.792,2.792,0,0,1-.558.79,5.5,5.5,0,0,1-1.675,1.256,5.937,5.937,0,0,1-2.791.589,6.239,6.239,0,0,1-4.961-1.985" transform="translate(-189.489 -162.469)" fill="#fff"/><path d="M312.336,215.506a12.882,12.882,0,0,0,0-10.061,3.893,3.893,0,0,0-6.387-.016,12.912,12.912,0,0,0,0,10.077,3.9,3.9,0,0,0,6.387,0m-8.108.915a11.33,11.33,0,0,1,0-11.907,6.782,6.782,0,0,1,9.829,0,9.306,9.306,0,0,1,1.69,5.953,9.194,9.194,0,0,1-1.721,5.938,6.728,6.728,0,0,1-9.8.015" transform="translate(-242.844 -162.469)" fill="#fff"/><path d="M387.615,216.671a4.094,4.094,0,0,0,1.224-1.085,2.779,2.779,0,0,0,.419-.682v-4.527a13.922,13.922,0,0,0-4.636,1.209,2.988,2.988,0,0,0-1.814,2.853,2.59,2.59,0,0,0,.776,2.031,3.034,3.034,0,0,0,2.108.7,3.594,3.594,0,0,0,1.923-.5m-5.892.853a3.414,3.414,0,0,1-1.24-2.806q0-4.558,8.775-5.489v-1.643a4.669,4.669,0,0,0-.713-3.008,3.241,3.241,0,0,0-2.512-.806,4.925,4.925,0,0,0-1.643.295,8.79,8.79,0,0,0-1.411.62q-.574.326-.729.419L382,203.834a6.916,6.916,0,0,1,.791-.465,9.576,9.576,0,0,1,1.613-.651,6.471,6.471,0,0,1,1.969-.31,5.73,5.73,0,0,1,3.907,1.116q1.24,1.117,1.24,3.938v7.6a4.011,4.011,0,0,0,.232,1.674.671.671,0,0,0,.574.435,2.682,2.682,0,0,0,.682-.109,3.351,3.351,0,0,0,.527-.17l.093,1.054q-.249.093-1.054.341a4.8,4.8,0,0,1-1.364.248,1.538,1.538,0,0,1-1.241-.512,3.227,3.227,0,0,1-.527-1.813h-.031a2.3,2.3,0,0,1-.5.713,4.837,4.837,0,0,1-1.473,1.1,5.207,5.207,0,0,1-2.434.512,5.053,5.053,0,0,1-3.287-1.008" transform="translate(-305.41 -162.471)" fill="#fff"/><path d="M457.964,216.546q-1.736-1.983-1.736-5.922a9.466,9.466,0,0,1,1.721-6.093,6.1,6.1,0,0,1,5.038-2.124,6.974,6.974,0,0,1,2.047.294,9.3,9.3,0,0,1,1.628.651,4.265,4.265,0,0,1,.667.388l-.279,1.271a7.616,7.616,0,0,0-.667-.387,8.5,8.5,0,0,0-1.4-.574,5.6,5.6,0,0,0-1.752-.279,3.99,3.99,0,0,0-3.5,1.582q-1.116,1.581-1.117,5.24,0,3.535,1.178,5.055a3.956,3.956,0,0,0,3.318,1.52,4.493,4.493,0,0,0,2.062-.435,4.944,4.944,0,0,0,1.317-.914q.466-.481.466-.574l.992.651a2.794,2.794,0,0,1-.558.79,5.507,5.507,0,0,1-1.675,1.256,5.938,5.938,0,0,1-2.791.589,6.24,6.24,0,0,1-4.961-1.985" transform="translate(-366.209 -162.469)" fill="#fff"/><path d="M528.517,164.6l1.83-.1.433,9.185h.031a4.972,4.972,0,0,1,1.923-1.271,7.039,7.039,0,0,1,2.511-.434,4.649,4.649,0,0,1,3.488,1.256,5.15,5.15,0,0,1,1.225,3.736v10.822h-2.233V177.249q0-3.628-3.225-3.628a5.152,5.152,0,0,0-1.953.341,4.721,4.721,0,0,0-1.3.744q-.465.4-.465.465v12.621h-2.263Z" transform="translate(-424.235 -132.041)" fill="#fff"/><path d="M608.344,180.39h2.263v15.5h-2.263Zm.248-3.473a1.422,1.422,0,0,1,0-1.985,1.216,1.216,0,0,1,.9-.341,1.332,1.332,0,0,1,.93.31,1.45,1.45,0,0,1,.372,1.023,1.229,1.229,0,0,1-1.3,1.333,1.214,1.214,0,0,1-.9-.341" transform="translate(-488.186 -140.143)" fill="#fff"/><path d="M644.017,202.716h1.667l.472,1.489a5.8,5.8,0,0,1,1.551-1.194,6.2,6.2,0,0,1,3.038-.6,4.663,4.663,0,0,1,3.473,1.256,5.112,5.112,0,0,1,1.24,3.737V218.22H653.2V207.864a4.321,4.321,0,0,0-.806-2.9A3.016,3.016,0,0,0,650,204.05a5.152,5.152,0,0,0-1.953.341,5,5,0,0,0-1.318.744q-.481.4-.48.465v12.62h-2.233Z" transform="translate(-516.946 -162.469)" fill="#fff"/><path d="M725.569,207.864a4.661,4.661,0,0,0-.868-3.178,3.162,3.162,0,0,0-2.45-.946,3.342,3.342,0,0,0-2.5.93,4.535,4.535,0,0,0-.915,3.225,4.9,4.9,0,0,0,.9,3.194,3.117,3.117,0,0,0,2.543,1.085q3.286,0,3.286-4.31M725.88,224a3,3,0,0,0,1.178-2.558q0-3.256-5.054-3.256a8.739,8.739,0,0,1-2.326-.248,3.28,3.28,0,0,0-1.5,1.194,3.514,3.514,0,0,0-.574,2.061,3.179,3.179,0,0,0,1.287,2.776,6.227,6.227,0,0,0,3.643.914A5.5,5.5,0,0,0,725.88,224m-8.341.992a4.428,4.428,0,0,1-1.705-3.768,4.086,4.086,0,0,1,2.574-4.062,2.726,2.726,0,0,1-.558-1.829,3.2,3.2,0,0,1,1.425-2.6,4.6,4.6,0,0,1-1.922-1.876,6,6,0,0,1-.682-2.961,5.112,5.112,0,0,1,1.6-4.155,6.2,6.2,0,0,1,4.109-1.333,6.768,6.768,0,0,1,2.14.31l4,.031v.816l-1.984.456a5.636,5.636,0,0,1,1.24,3.876,5.5,5.5,0,0,1-1.442,4.093,5.417,5.417,0,0,1-3.985,1.426,7.548,7.548,0,0,1-1.891-.217,1.983,1.983,0,0,0-1.086,1.612,1.178,1.178,0,0,0,.682,1.163,5.453,5.453,0,0,0,2.2.325q6.791,0,6.79,4.775a4.644,4.644,0,0,1-1.689,3.876,7.633,7.633,0,0,1-4.822,1.333A8.2,8.2,0,0,1,717.538,225" transform="translate(-574.591 -162.47)" fill="#fff"/><path d="M27.823,51.835A30.346,30.346,0,0,0,34.181,40.27a28.438,28.438,0,0,0-.335-14.383,34.281,34.281,0,0,0-1.194-3.654,29.852,29.852,0,0,0-2.339-4.717c-.459-.75-.956-1.486-1.476-2.186-.019-.025-.052-.072-.1-.135l-.035-.049c-.509-.714-.847-1.163-1.079-1.43a33.378,33.378,0,0,1,3.341-.792.739.739,0,0,1,.412,0,.759.759,0,0,1,.255.284,37.994,37.994,0,0,1,6.052,18.387,47.112,47.112,0,0,1-.91,10.8,38.412,38.412,0,0,1-1.632,5.294A28.657,28.657,0,0,1,33,51.85l-.236.4a.929.929,0,0,1-.236.3.889.889,0,0,1-.5.073,21.688,21.688,0,0,1-4.345-.617l.149-.177M8.836,54.572c.274-.029.536-.055.8-.087a23.946,23.946,0,0,0,4.039-.812c.07-.021.082-.025.168.054q.427.393.852.79c.922.858,1.876,1.744,2.853,2.574a11.864,11.864,0,0,0,1.447,1c.225.14.459.284.681.433a.578.578,0,0,0,.649.008,13.762,13.762,0,0,0,2.517-1.737q.858-.781,1.709-1.569l.1-.1q.785-.725,1.572-1.445a.167.167,0,0,1,.043-.019,26.862,26.862,0,0,0,4.953.909A37.125,37.125,0,0,1,22,63.7l-.583.387c-.364.241-.728.483-1.088.729a.5.5,0,0,1-.646,0L18.157,63.75q-.858-.6-1.714-1.2A31.611,31.611,0,0,1,10.87,57.2c-.524-.6-1.022-1.254-1.512-1.893-.187-.245-.373-.488-.562-.73Zm3.189-40.325-.015.017c-.365.413-.744.839-1.1,1.273A25.942,25.942,0,0,0,5.592,26.916a24.459,24.459,0,0,0-.538,4.826,32.131,32.131,0,0,0,5.1,17.436,24.937,24.937,0,0,0,2.163,2.886l-.239.049-.019,0c-.481.1-.936.191-1.4.248-.88.108-1.782.182-2.653.253l-.489.044a.15.15,0,0,1-.033-.031,28.982,28.982,0,0,1-3.256-6.609,36.915,36.915,0,0,1-.894-20.861,37.334,37.334,0,0,1,3.211-8.9c.394-.746.842-1.479,1.275-2.187l.019-.031c.218-.358.445-.728.661-1.1.047-.079.063-.083.1-.083a.373.373,0,0,1,.057,0,25.784,25.784,0,0,1,3.816.872c-.15.171-.3.341-.452.511m14.5-1.7c-.078.023-.093.023-.171-.049a30.532,30.532,0,0,0-6.009-4.4.644.644,0,0,0-.679,0c-.155.091-.312.177-.48.269-.26.143-.53.29-.786.459a33.958,33.958,0,0,0-4.807,3.729c-.005,0-.009.009-.005.01h0a.593.593,0,0,1-.07-.018,21.231,21.231,0,0,0-3.786-.826c-.112-.013-.223-.021-.33-.027A44.158,44.158,0,0,1,20,1.285,44.033,44.033,0,0,1,30.612,11.709a18.915,18.915,0,0,0-4.09.842m-.535,39.081a27.578,27.578,0,0,1-4.71-1.692l-.175-.089.269-.193c4.805-3.442,8.642-9.712,8.98-15.681,0-.006,0-.012,0-.019a15.331,15.331,0,0,0-.009-1.827,20.766,20.766,0,0,0-2.45-8.483,19.429,19.429,0,0,0-3.823-4.81,22.838,22.838,0,0,0-2.816-2.332,25.7,25.7,0,0,1,4.641-2.226c.009,0,.038-.014.033-.019a.213.213,0,0,1,.019.021c.148.179.3.353.457.53.275.314.56.639.807.979,5.328,7.344,7.468,17,4.841,25.779a18.936,18.936,0,0,1-1.414,3.36,39.57,39.57,0,0,1-4.381,6.607c-.109.134-.139.134-.269.095M14.063,14.294l.025-.013A25.149,25.149,0,0,1,18.8,16.537a20.788,20.788,0,0,0-7.965,9.978,19.388,19.388,0,0,0-.327,11.464,22.874,22.874,0,0,0,5.862,9.6q.59.621,1.226,1.2c.137.124,1.166,1.136,1.307,1.066l-.038.022a18.209,18.209,0,0,1-3.79,1.458c-.145.043-.29.085-.436.126-.231.066-.471.133-.7.21-.069.022-.071.023-.127-.047A42.462,42.462,0,0,1,9.725,45.6,22.453,22.453,0,0,1,6.843,34.849,32.006,32.006,0,0,1,8.3,24.371,30.842,30.842,0,0,1,13.021,15.5a12.2,12.2,0,0,1,.834-.976Zm6.491,42.358-.515.387L20,57.064c-.47-.376-.961-.728-1.44-1.072a20.676,20.676,0,0,1-2.308-1.831c-.292-.281-.577-.575-.853-.86l-.151-.155a21.5,21.5,0,0,0,3.172-1.629l.5-.3c.341-.2.693-.411,1.035-.625.044-.028.045-.027.1.007,1.456.83,2.9,1.737,4.429,2.439l.024.011c.067.03.135.056.2.082l.087.034c-.105.089-.217.184-.318.287a19.994,19.994,0,0,1-2.7,2.292c-.413.29-.822.6-1.229.905M19.326,9.729q.339-.234.68-.471a25.143,25.143,0,0,1,4.826,3.872,25.5,25.5,0,0,0-4.782,2.489l.034.051-.037-.051a.093.093,0,0,1-.06.024,25.127,25.127,0,0,0-4.833-2.521l.436-.411.015-.013c.539-.51,1.048-.992,1.6-1.433.661-.528,1.373-1.02,2.063-1.495Zm.682,7.586c3.038,1.988,5.03,5.191,6.426,7.759a17.451,17.451,0,0,1,2.136,8.163,19.09,19.09,0,0,1-3.684,11.1,18.742,18.742,0,0,1-4.431,4.533c-.455.325-.456.325-.908,0a20.174,20.174,0,0,1-6.431-8.006,17.917,17.917,0,0,1-1.669-7.351,17.491,17.491,0,0,1,1.4-6.94A19.592,19.592,0,0,1,20,17.312l0,0M39.514,27.3A34.281,34.281,0,0,0,36.2,17.338,45.117,45.117,0,0,0,26.113,4.715,49.121,49.121,0,0,0,20.538.179a.886.886,0,0,0-1.07,0c-.629.423-1.266.891-1.945,1.433a70.611,70.611,0,0,0-7.507,7.152A43.759,43.759,0,0,0,6.177,13.43,34.477,34.477,0,0,0,0,33.165,36.66,36.66,0,0,0,1.55,43.5a34.466,34.466,0,0,0,1.284,3.625A40.709,40.709,0,0,0,19.679,66.4a.647.647,0,0,0,.329.1.6.6,0,0,0,.329-.109c.35-.227.7-.451,1.055-.673.55-.348,1.118-.708,1.667-1.079a44.251,44.251,0,0,0,4.485-3.633l.495-.438a23.387,23.387,0,0,0,1.9-1.894,36.216,36.216,0,0,0,5.614-8.126,41.821,41.821,0,0,0,3.316-8.537A35.685,35.685,0,0,0,39.514,27.3" transform="translate(-0.001 0)" fill="#fff"/></g></g></g></svg>