<svg xmlns="http://www.w3.org/2000/svg" width="244.346" height="48.492" viewBox="0 0 244.346 48.492"><path d="M30.981,14.166a12.123,12.123,0,0,0-6.735-2.043V0A24.246,24.246,0,1,1,0,24.246H12.123a12.123,12.123,0,1,0,18.858-10.08Z" transform="translate(0 0)" fill="#004993" fill-rule="evenodd"/><path d="M12.123,0A12.123,12.123,0,0,1,11.2,4.639,12.123,12.123,0,0,1,8.572,8.572,12.123,12.123,0,0,1,4.639,11.2,12.123,12.123,0,0,1,0,12.123V24.246A24.246,24.246,0,0,0,9.278,22.4a24.244,24.244,0,0,0,7.866-5.256A24.244,24.244,0,0,0,22.4,9.278,24.246,24.246,0,0,0,24.246,0Z" transform="translate(0 0)" fill="#004993" fill-rule="evenodd"/><path d="M126.649,14.452h-5.882V33.137h5.882Z" transform="translate(25.638 3.068)" fill="#004993"/><path d="M121.462,12.536a3.127,3.127,0,0,0,2.306.923,3,3,0,0,0,2.268-.923,3.285,3.285,0,0,0,.885-2.307,3.2,3.2,0,0,0-.885-2.307A3,3,0,0,0,123.768,7a3.127,3.127,0,0,0-2.306.923,3.2,3.2,0,0,0-.885,2.307A3.285,3.285,0,0,0,121.462,12.536Z" transform="translate(25.598 1.486)" fill="#004993"/><path d="M51.156,34.618V7.476h6.036V29.312H69.225v5.305Z" transform="translate(10.86 1.587)" fill="#004993"/><path d="M76.818,33.634a10.809,10.809,0,0,1-5.229-1.269,9.873,9.873,0,0,1-3.652-3.537,9.485,9.485,0,0,1-1.346-5,9.286,9.286,0,0,1,1.346-4.959,9.675,9.675,0,0,1,3.652-3.46A10.417,10.417,0,0,1,76.818,14.1a10.669,10.669,0,0,1,5.229,1.269,9.581,9.581,0,0,1,3.652,3.5,9.285,9.285,0,0,1,1.346,4.959,9.484,9.484,0,0,1-1.346,5,9.872,9.872,0,0,1-3.652,3.537A10.668,10.668,0,0,1,76.818,33.634Zm0-5.344a4.487,4.487,0,0,0,2.23-.538,3.768,3.768,0,0,0,1.461-1.576,5.019,5.019,0,0,0,.538-2.345,4.568,4.568,0,0,0-.538-2.268,3.769,3.769,0,0,0-1.5-1.538,4.049,4.049,0,0,0-2.191-.577,4.175,4.175,0,0,0-2.191.577,3.769,3.769,0,0,0-1.5,1.538,4.79,4.79,0,0,0-.538,2.307,4.935,4.935,0,0,0,.538,2.307,4.033,4.033,0,0,0,1.5,1.576A4.408,4.408,0,0,0,76.818,28.29Z" transform="translate(14.137 2.994)" fill="#004993" fill-rule="evenodd"/><path d="M87.959,40.509a12.871,12.871,0,0,0,5.421,1.076,11.631,11.631,0,0,0,5.344-1.192,9.233,9.233,0,0,0,3.691-3.306,9.111,9.111,0,0,0,1.346-5V14.52H97.993v1.255a6.215,6.215,0,0,0-1.461-.909,7.716,7.716,0,0,0-3.422-.731,8.621,8.621,0,0,0-7.728,4.537,9.493,9.493,0,0,0-1.153,4.69,9.632,9.632,0,0,0,1.153,4.69A8.8,8.8,0,0,0,88.535,31.4a8.551,8.551,0,0,0,4.575,1.23,7.874,7.874,0,0,0,3.422-.73,6.853,6.853,0,0,0,1.346-.834v1.18a3.765,3.765,0,0,1-1.269,3.037,5.024,5.024,0,0,1-3.422,1.076,6.9,6.9,0,0,1-3.037-.615,7.009,7.009,0,0,1-2.23-1.807l-3.614,3.614A8.71,8.71,0,0,0,87.959,40.509ZM96.34,26.861a3.989,3.989,0,0,1-2.114.538,4.2,4.2,0,0,1-2.153-.538A3.793,3.793,0,0,1,90.688,25.4a4.354,4.354,0,0,1-.5-2.037,4.287,4.287,0,0,1,.5-2.076,3.71,3.71,0,0,1,1.422-1.461,4.118,4.118,0,0,1,2.114-.538,3.989,3.989,0,0,1,2.114.538,3.454,3.454,0,0,1,1.384,1.461,4.562,4.562,0,0,1,0,4.152A3.515,3.515,0,0,1,96.34,26.861Z" transform="translate(17.881 3.001)" fill="#004993" fill-rule="evenodd"/><path d="M112.342,33.634a10.806,10.806,0,0,1-5.229-1.269,9.869,9.869,0,0,1-3.653-3.537,9.484,9.484,0,0,1-1.346-5,9.285,9.285,0,0,1,1.346-4.959,9.671,9.671,0,0,1,3.653-3.46,10.415,10.415,0,0,1,5.229-1.307,10.666,10.666,0,0,1,5.227,1.269,9.579,9.579,0,0,1,3.653,3.5,9.285,9.285,0,0,1,1.346,4.959,9.484,9.484,0,0,1-1.346,5,9.869,9.869,0,0,1-3.653,3.537A10.664,10.664,0,0,1,112.342,33.634Zm0-5.344a4.489,4.489,0,0,0,2.229-.538,3.773,3.773,0,0,0,1.461-1.576,5.019,5.019,0,0,0,.538-2.345,4.568,4.568,0,0,0-.538-2.268,3.766,3.766,0,0,0-1.5-1.538,4.047,4.047,0,0,0-2.191-.577,4.174,4.174,0,0,0-2.192.577,3.766,3.766,0,0,0-1.5,1.538,4.79,4.79,0,0,0-.538,2.307,4.935,4.935,0,0,0,.538,2.307,4.029,4.029,0,0,0,1.5,1.576A4.406,4.406,0,0,0,112.342,28.29Z" transform="translate(21.678 2.994)" fill="#004993" fill-rule="evenodd"/><path d="M139.166,33.588a8.132,8.132,0,0,1-3.46-.73,7.351,7.351,0,0,1-1.5-.918v9.145H128.4V14.52h5.882v1.29a7.273,7.273,0,0,1,1.422-.905,7.788,7.788,0,0,1,3.46-.769,8.743,8.743,0,0,1,7.92,4.729,10.283,10.283,0,0,1,1.192,5,10.283,10.283,0,0,1-1.192,5,8.743,8.743,0,0,1-7.92,4.729Zm-1.075-5.305a4.068,4.068,0,0,0,3.69-2.153,4.708,4.708,0,0,0,.538-2.268,4.79,4.79,0,0,0-.538-2.307,3.766,3.766,0,0,0-1.5-1.538,3.974,3.974,0,0,0-2.153-.577,4.172,4.172,0,0,0-2.191.577,3.84,3.84,0,0,0-1.461,1.538,4.79,4.79,0,0,0-.538,2.307,5,5,0,0,0,.5,2.268,4.03,4.03,0,0,0,1.5,1.576A4.1,4.1,0,0,0,138.091,28.283Z" transform="translate(27.259 3.001)" fill="#004993" fill-rule="evenodd"/><path d="M150.468,33.269a12.84,12.84,0,0,0,3.267.423,8.68,8.68,0,0,0,5.537-1.615,5.219,5.219,0,0,0,2.075-4.344,5.429,5.429,0,0,0-.653-2.845A5.085,5.085,0,0,0,159,23.12a10.1,10.1,0,0,0-2.192-1.038q-1.153-.384-2.191-.654a7.93,7.93,0,0,1-1.692-.615,1.037,1.037,0,0,1-.653-.923.868.868,0,0,1,.5-.807,2.912,2.912,0,0,1,1.5-.307,5.754,5.754,0,0,1,2.114.423,4.916,4.916,0,0,1,2,1.461l3.345-3.383a7.721,7.721,0,0,0-3.306-2.422,11.131,11.131,0,0,0-4.382-.846,9.49,9.49,0,0,0-3.959.769,6.17,6.17,0,0,0-2.615,2.114,5.264,5.264,0,0,0-.923,3.114,5.485,5.485,0,0,0,.653,2.806,4.862,4.862,0,0,0,1.691,1.692,9.823,9.823,0,0,0,2.192.961q1.153.346,2.192.654a6.666,6.666,0,0,1,1.691.654,1.108,1.108,0,0,1,.692,1.038.937.937,0,0,1-.577.846,3.235,3.235,0,0,1-1.576.308,7.007,7.007,0,0,1-2.768-.538,6.74,6.74,0,0,1-2.192-1.576L145.2,30.232a10.439,10.439,0,0,0,2.307,1.845A13.01,13.01,0,0,0,150.468,33.269Z" transform="translate(30.825 2.974)" fill="#004993"/><path d="M168.9,33.56a9.781,9.781,0,0,1-4.574-1.038,8.028,8.028,0,0,1-3.076-2.922,8.282,8.282,0,0,1-1.115-4.306V14.452h5.882V25.217a4.032,4.032,0,0,0,.308,1.653,2.536,2.536,0,0,0,1,1.077,3.059,3.059,0,0,0,1.576.384,2.733,2.733,0,0,0,2.077-.807,3.3,3.3,0,0,0,.769-2.307V14.452h5.882v10.8a8.357,8.357,0,0,1-1.115,4.344,8.028,8.028,0,0,1-3.076,2.922A9.551,9.551,0,0,1,168.9,33.56Z" transform="translate(33.996 3.068)" fill="#004993"/><path d="M182.861,14.52h-5.882V33.2h5.882V22.286a3.143,3.143,0,0,1,.384-1.615,2.8,2.8,0,0,1,1.115-1,3.191,3.191,0,0,1,1.576-.385,2.94,2.94,0,0,1,2.114.807,2.745,2.745,0,0,1,.885,2.191V33.2h5.882V22.286a3.143,3.143,0,0,1,.384-1.615,2.8,2.8,0,0,1,1.115-1,3.188,3.188,0,0,1,1.576-.385,2.94,2.94,0,0,1,2.114.807,2.748,2.748,0,0,1,.884,2.191V33.2h5.883V21.632a7.585,7.585,0,0,0-1-4,6.422,6.422,0,0,0-2.652-2.576,7.678,7.678,0,0,0-3.807-.923,8.152,8.152,0,0,0-3.959.961,7.182,7.182,0,0,0-2.009,1.58A6.537,6.537,0,0,0,191.4,15.02a6.886,6.886,0,0,0-3.5-.884,7.78,7.78,0,0,0-3.729.884,6.442,6.442,0,0,0-1.308.881Z" transform="translate(37.571 3.001)" fill="#004993"/></svg>