<svg xmlns="http://www.w3.org/2000/svg" xmlns:xlink="http://www.w3.org/1999/xlink" width="144.697" height="62.3" viewBox="0 0 144.697 62.3">
  <defs>
    <clipPath id="clip-path">
      <rect id="Rectangle_136" data-name="Rectangle 136" width="144.697" height="62.3" fill="none"/>
    </clipPath>
  </defs>
  <g id="Group_2358" data-name="Group 2358" transform="translate(-0.001)">
    <path id="Path_10099" data-name="Path 10099" d="M236.066,54.5l.092-19.828.061.092-.031-.092h2.837l6.985,16.991h.031l6.985-16.991h2.684L255.8,54.5h-1.527l-.822-16.991h-.031L246.56,54.5H244.7L237.8,37.512,237.5,54.5Z" transform="translate(-192.428 -28.265)" fill="#011129"/>
    <path id="Path_10100" data-name="Path 10100" d="M373.858,54.5V34.675h10.677v1.464h-8.358v7.626h7.657v1.4h-7.657v7.87h9.03V54.5Z" transform="translate(-304.75 -28.265)" fill="#011129"/>
    <path id="Path_10101" data-name="Path 10101" d="M457.523,54.5V34.675h2.41l10.127,16.35-.091-.732V34.675h1.678V54.5h-2.014L459.079,37.6h-.03l.153.946L458.834,54.5Z" transform="translate(-372.949 -28.265)" fill="#011129"/>
    <path id="Path_10102" data-name="Path 10102" d="M564.951,54.5V34.675h10.89v1.464h-8.572v7.9h7.383v1.4h-7.383V54.5Z" transform="translate(-460.519 -28.265)" fill="#011129"/>
    <path id="Path_10103" data-name="Path 10103" d="M641.519,54.5V34.675H652.2v1.464h-8.358v7.626h7.657v1.4h-7.657v7.87h9.03V54.5Z" transform="translate(-522.934 -28.265)" fill="#011129"/>
    <g id="Group_2357" data-name="Group 2357" transform="translate(0.001)">
      <g id="Group_2356" data-name="Group 2356" transform="translate(0)" clip-path="url(#clip-path)">
        <path id="Path_10104" data-name="Path 10104" d="M719.5,53.017a6.041,6.041,0,0,1-1.937-1.236q-.625-.655-.625-.777l.762-1.19a2.828,2.828,0,0,0,.58.687,5.523,5.523,0,0,0,1.693,1.1,6.606,6.606,0,0,0,2.73.5,4.049,4.049,0,0,0,3.02-1.113,3.776,3.776,0,0,0,1.1-2.76,3.154,3.154,0,0,0-.549-1.892,4.221,4.221,0,0,0-1.357-1.22,21.891,21.891,0,0,0-2.181-1.037,19.3,19.3,0,0,1-2.563-1.22,5.036,5.036,0,0,1-1.646-1.6,4.663,4.663,0,0,1-.671-2.609,5.181,5.181,0,0,1,1.586-3.98,5.966,5.966,0,0,1,4.24-1.48,6.9,6.9,0,0,1,2.364.382,7.5,7.5,0,0,1,1.693.824,2.784,2.784,0,0,1,.641.5l-.305,1.342a2.558,2.558,0,0,0-.609-.488,7.4,7.4,0,0,0-1.556-.793,5.788,5.788,0,0,0-2.105-.367,3.7,3.7,0,0,0-2.684.946,3.4,3.4,0,0,0-.976,2.562,3.147,3.147,0,0,0,.534,1.876,4.124,4.124,0,0,0,1.342,1.205,19.569,19.569,0,0,0,2.151,1.007,19.4,19.4,0,0,1,2.592,1.265,5.183,5.183,0,0,1,1.663,1.663,5,5,0,0,1,.687,2.745,5.666,5.666,0,0,1-.778,2.974,5.348,5.348,0,0,1-2.212,2.029,7.221,7.221,0,0,1-3.325.732,8.17,8.17,0,0,1-3.295-.579" transform="translate(-584.409 -27.054)" fill="#011129"/>
        <path id="Path_10105" data-name="Path 10105" d="M237.694,215.653a8.214,8.214,0,0,1-1.626-5.548,8.868,8.868,0,0,1,1.612-5.709,5.719,5.719,0,0,1,4.72-1.99,6.534,6.534,0,0,1,1.917.276,8.713,8.713,0,0,1,1.525.61,4,4,0,0,1,.624.363l-.262,1.191a7.157,7.157,0,0,0-.624-.363,7.972,7.972,0,0,0-1.307-.538,5.242,5.242,0,0,0-1.641-.262,3.739,3.739,0,0,0-3.282,1.482q-1.045,1.481-1.046,4.909,0,3.312,1.1,4.735a3.706,3.706,0,0,0,3.109,1.424,4.208,4.208,0,0,0,1.931-.407,4.63,4.63,0,0,0,1.234-.857q.436-.45.436-.538l.93.61a2.616,2.616,0,0,1-.523.741,5.155,5.155,0,0,1-1.569,1.177,5.562,5.562,0,0,1-2.614.552,5.845,5.845,0,0,1-4.648-1.859" transform="translate(-192.43 -164.991)" fill="#011129"/>
        <path id="Path_10106" data-name="Path 10106" d="M311.717,214.679a12.068,12.068,0,0,0,0-9.426,3.647,3.647,0,0,0-5.984-.015,12.1,12.1,0,0,0,0,9.441,3.656,3.656,0,0,0,5.984,0m-7.6.857a10.614,10.614,0,0,1,0-11.155,6.353,6.353,0,0,1,9.209,0,8.719,8.719,0,0,1,1.583,5.577,8.614,8.614,0,0,1-1.612,5.563,6.3,6.3,0,0,1-9.179.014" transform="translate(-246.614 -164.991)" fill="#011129"/>
        <path id="Path_10107" data-name="Path 10107" d="M387.164,215.77a3.835,3.835,0,0,0,1.147-1.016,2.6,2.6,0,0,0,.393-.639v-4.241a13.043,13.043,0,0,0-4.343,1.133,2.8,2.8,0,0,0-1.7,2.673,2.426,2.426,0,0,0,.727,1.9,2.842,2.842,0,0,0,1.975.654,3.367,3.367,0,0,0,1.8-.465m-5.519.8a3.2,3.2,0,0,1-1.162-2.629q0-4.271,8.221-5.142v-1.539a4.374,4.374,0,0,0-.668-2.818,3.036,3.036,0,0,0-2.353-.755,4.614,4.614,0,0,0-1.54.276,8.235,8.235,0,0,0-1.322.581q-.538.305-.683.392l-.233-1.191a6.474,6.474,0,0,1,.741-.436,8.97,8.97,0,0,1,1.511-.61,6.063,6.063,0,0,1,1.844-.29,5.368,5.368,0,0,1,3.66,1.045q1.161,1.046,1.162,3.689v7.117a3.759,3.759,0,0,0,.218,1.568.629.629,0,0,0,.538.407,2.512,2.512,0,0,0,.639-.1,3.141,3.141,0,0,0,.494-.16l.087.988q-.233.087-.988.32a4.5,4.5,0,0,1-1.278.232,1.441,1.441,0,0,1-1.163-.479,3.023,3.023,0,0,1-.493-1.7h-.029a2.15,2.15,0,0,1-.465.668,4.532,4.532,0,0,1-1.38,1.031,4.878,4.878,0,0,1-2.28.479,4.734,4.734,0,0,1-3.079-.944" transform="translate(-310.151 -164.993)" fill="#011129"/>
        <path id="Path_10108" data-name="Path 10108" d="M457.855,215.653a8.214,8.214,0,0,1-1.627-5.548,8.868,8.868,0,0,1,1.612-5.709,5.719,5.719,0,0,1,4.72-1.99,6.534,6.534,0,0,1,1.918.276,8.712,8.712,0,0,1,1.525.61,4,4,0,0,1,.624.363l-.262,1.191a7.144,7.144,0,0,0-.624-.363,7.96,7.96,0,0,0-1.307-.538,5.244,5.244,0,0,0-1.641-.262,3.738,3.738,0,0,0-3.282,1.482q-1.046,1.481-1.046,4.909,0,3.312,1.1,4.735a3.706,3.706,0,0,0,3.108,1.424,4.209,4.209,0,0,0,1.932-.407,4.631,4.631,0,0,0,1.234-.857q.436-.45.437-.538l.929.61a2.617,2.617,0,0,1-.523.741,5.158,5.158,0,0,1-1.569,1.177,5.563,5.563,0,0,1-2.614.552,5.846,5.846,0,0,1-4.648-1.859" transform="translate(-371.894 -164.991)" fill="#011129"/>
        <path id="Path_10109" data-name="Path 10109" d="M528.517,164.592l1.714-.094.406,8.6h.029a4.658,4.658,0,0,1,1.8-1.191,6.594,6.594,0,0,1,2.353-.407,4.355,4.355,0,0,1,3.268,1.177,4.824,4.824,0,0,1,1.148,3.5v10.138h-2.092v-9.877q0-3.4-3.021-3.4a4.826,4.826,0,0,0-1.83.32,4.424,4.424,0,0,0-1.22.7q-.435.378-.436.435v11.824h-2.12Z" transform="translate(-430.821 -134.091)" fill="#011129"/>
        <path id="Path_10110" data-name="Path 10110" d="M608.334,180.024h2.12v14.525h-2.12Zm.232-3.254a1.333,1.333,0,0,1,0-1.859,1.14,1.14,0,0,1,.842-.319,1.247,1.247,0,0,1,.872.29,1.358,1.358,0,0,1,.348.958,1.151,1.151,0,0,1-1.22,1.249,1.137,1.137,0,0,1-.842-.32" transform="translate(-495.765 -142.319)" fill="#011129"/>
        <path id="Path_10111" data-name="Path 10111" d="M644.017,202.7h1.562l.443,1.395a5.433,5.433,0,0,1,1.453-1.119,5.808,5.808,0,0,1,2.846-.566,4.369,4.369,0,0,1,3.254,1.176,4.789,4.789,0,0,1,1.162,3.5v10.138h-2.12v-9.7a4.048,4.048,0,0,0-.756-2.717,2.825,2.825,0,0,0-2.236-.857,4.826,4.826,0,0,0-1.83.32,4.68,4.68,0,0,0-1.235.7q-.45.378-.45.436v11.823h-2.092Z" transform="translate(-524.971 -164.991)" fill="#011129"/>
        <path id="Path_10112" data-name="Path 10112" d="M724.954,207.519a4.366,4.366,0,0,0-.813-2.978,2.962,2.962,0,0,0-2.3-.886,3.131,3.131,0,0,0-2.338.872,4.248,4.248,0,0,0-.857,3.021,4.594,4.594,0,0,0,.842,2.992,2.92,2.92,0,0,0,2.383,1.016q3.078,0,3.078-4.038m.291,15.12a2.813,2.813,0,0,0,1.1-2.4q0-3.05-4.735-3.051a8.187,8.187,0,0,1-2.179-.232,3.071,3.071,0,0,0-1.408,1.119,3.291,3.291,0,0,0-.538,1.931,2.978,2.978,0,0,0,1.206,2.6,5.834,5.834,0,0,0,3.413.857,5.149,5.149,0,0,0,3.137-.828m-7.814.93a4.148,4.148,0,0,1-1.6-3.53,3.828,3.828,0,0,1,2.411-3.805,2.554,2.554,0,0,1-.522-1.714,3,3,0,0,1,1.335-2.44,4.313,4.313,0,0,1-1.8-1.758,5.618,5.618,0,0,1-.639-2.774,4.789,4.789,0,0,1,1.5-3.893,5.806,5.806,0,0,1,3.849-1.249,6.341,6.341,0,0,1,2,.29l3.747.029v.764l-1.859.427a5.28,5.28,0,0,1,1.162,3.631,5.154,5.154,0,0,1-1.351,3.834,5.075,5.075,0,0,1-3.733,1.336,7.073,7.073,0,0,1-1.771-.2,1.858,1.858,0,0,0-1.017,1.51,1.1,1.1,0,0,0,.639,1.09,5.109,5.109,0,0,0,2.063.3q6.362,0,6.362,4.474a4.351,4.351,0,0,1-1.583,3.631,7.151,7.151,0,0,1-4.517,1.249,7.682,7.682,0,0,1-4.677-1.206" transform="translate(-583.511 -164.992)" fill="#011129"/>
        <path id="Path_10113" data-name="Path 10113" d="M26.066,48.562a28.429,28.429,0,0,0,5.956-10.834,26.642,26.642,0,0,0-.314-13.474,32.114,32.114,0,0,0-1.119-3.423A27.967,27.967,0,0,0,28.4,16.41c-.43-.7-.9-1.392-1.383-2.048-.018-.023-.049-.067-.091-.126l-.033-.046c-.477-.669-.794-1.09-1.011-1.339a31.27,31.27,0,0,1,3.13-.742.692.692,0,0,1,.386,0,.711.711,0,0,1,.239.266A35.594,35.594,0,0,1,35.306,29.6a44.137,44.137,0,0,1-.852,10.121,35.986,35.986,0,0,1-1.529,4.96,26.847,26.847,0,0,1-2.013,3.9l-.221.376a.871.871,0,0,1-.221.285.833.833,0,0,1-.473.069,20.318,20.318,0,0,1-4.071-.578l.14-.166M8.278,51.126c.257-.027.5-.052.747-.081a22.433,22.433,0,0,0,3.784-.761c.066-.019.077-.024.157.051q.4.368.8.741c.864.8,1.758,1.634,2.673,2.411a11.115,11.115,0,0,0,1.356.937c.211.131.43.266.638.405a.541.541,0,0,0,.608.007A12.893,12.893,0,0,0,21.4,53.208q.8-.731,1.6-1.47l.1-.089q.735-.679,1.472-1.354a.156.156,0,0,1,.04-.018,25.167,25.167,0,0,0,4.64.852,34.78,34.78,0,0,1-8.639,8.546l-.546.363c-.341.226-.682.453-1.019.683a.466.466,0,0,1-.605,0l-1.427-1q-.8-.559-1.606-1.12a29.615,29.615,0,0,1-5.221-5.017c-.491-.566-.958-1.175-1.416-1.773-.175-.229-.35-.457-.526-.684Zm2.988-37.778-.014.016c-.342.387-.7.786-1.031,1.193a24.3,24.3,0,0,0-4.981,10.66,22.914,22.914,0,0,0-.5,4.521A30.1,30.1,0,0,0,9.513,46.072a23.362,23.362,0,0,0,2.026,2.7l-.224.046-.017,0c-.451.092-.877.179-1.308.232-.824.1-1.669.17-2.486.237l-.458.041a.14.14,0,0,1-.031-.029,27.152,27.152,0,0,1-3.051-6.192,34.584,34.584,0,0,1-.838-19.544A34.976,34.976,0,0,1,6.135,15.23c.369-.7.789-1.385,1.194-2.049l.018-.029c.2-.335.416-.682.619-1.026.044-.074.059-.078.095-.078a.349.349,0,0,1,.053,0,24.155,24.155,0,0,1,3.575.817l-.423.479m13.581-1.59c-.073.022-.087.021-.16-.045a28.6,28.6,0,0,0-5.63-4.118.6.6,0,0,0-.636,0c-.145.085-.292.166-.45.252-.244.134-.5.272-.736.43a31.814,31.814,0,0,0-4.5,3.493s-.009.009,0,.009h0a.556.556,0,0,1-.066-.017,19.89,19.89,0,0,0-3.547-.774c-.1-.012-.209-.019-.309-.026A41.369,41.369,0,0,1,18.741,1.2a41.252,41.252,0,0,1,9.938,9.766,17.72,17.72,0,0,0-3.832.789m-.5,36.613a25.837,25.837,0,0,1-4.412-1.585l-.164-.084.252-.18c4.5-3.225,8.1-9.1,8.413-14.691,0-.006,0-.011,0-.017a14.363,14.363,0,0,0-.009-1.711,19.455,19.455,0,0,0-2.3-7.947,18.2,18.2,0,0,0-3.582-4.507,21.4,21.4,0,0,0-2.639-2.185,24.072,24.072,0,0,1,4.347-2.085c.009,0,.035-.013.031-.018a.2.2,0,0,1,.018.019c.139.167.282.331.428.5.258.294.524.6.756.917,4.991,6.88,7,15.923,4.535,24.151A17.74,17.74,0,0,1,28.7,42.093a37.071,37.071,0,0,1-4.1,6.189c-.1.125-.131.125-.252.089M13.174,13.391l.024-.012a23.561,23.561,0,0,1,4.417,2.113,19.475,19.475,0,0,0-7.462,9.348,18.164,18.164,0,0,0-.306,10.74,21.429,21.429,0,0,0,5.492,8.99q.553.582,1.149,1.12c.129.116,1.093,1.065,1.224,1l-.035.021a17.059,17.059,0,0,1-3.551,1.366c-.135.04-.272.079-.408.118-.217.062-.441.125-.659.2-.065.021-.066.022-.119-.044a39.78,39.78,0,0,1-3.829-5.629,21.035,21.035,0,0,1-2.7-10.07,29.985,29.985,0,0,1,1.367-9.816A28.894,28.894,0,0,1,12.2,14.519a11.428,11.428,0,0,1,.782-.914Zm6.081,39.683-.483.363-.033.023c-.44-.352-.9-.682-1.349-1a19.371,19.371,0,0,1-2.162-1.716c-.273-.263-.54-.539-.8-.806l-.141-.145a20.139,20.139,0,0,0,2.972-1.526l.466-.278c.319-.189.649-.385.97-.586.041-.026.042-.026.1.006,1.364.778,2.714,1.627,4.15,2.285l.023.01c.063.028.127.052.19.077l.081.032c-.1.083-.2.173-.3.269a18.731,18.731,0,0,1-2.532,2.147c-.387.272-.77.561-1.151.848m-1.15-43.96q.317-.219.637-.441A23.556,23.556,0,0,1,23.264,12.3a23.89,23.89,0,0,0-4.48,2.332l.032.048-.034-.048a.087.087,0,0,1-.056.023A23.54,23.54,0,0,0,14.2,12.293l.408-.385.014-.013c.505-.478.982-.93,1.5-1.342.619-.494,1.287-.955,1.932-1.4Zm.639,7.107c2.847,1.862,4.713,4.863,6.02,7.269a16.349,16.349,0,0,1,2,7.648,17.884,17.884,0,0,1-3.451,10.4,17.559,17.559,0,0,1-4.151,4.246c-.426.3-.427.3-.85,0a18.9,18.9,0,0,1-6.025-7.5,16.786,16.786,0,0,1-1.563-6.887,16.386,16.386,0,0,1,1.307-6.5,18.355,18.355,0,0,1,6.709-8.675l0,0m18.273,9.357a32.116,32.116,0,0,0-3.1-9.335,42.268,42.268,0,0,0-9.45-11.826A46.019,46.019,0,0,0,19.241.168a.83.83,0,0,0-1,0c-.589.4-1.186.835-1.822,1.342a66.152,66.152,0,0,0-7.033,6.7,41,41,0,0,0-3.6,4.371A32.3,32.3,0,0,0,0,31.07a34.345,34.345,0,0,0,1.451,9.686,32.29,32.29,0,0,0,1.2,3.4A38.138,38.138,0,0,0,18.437,62.2a.606.606,0,0,0,.309.1.564.564,0,0,0,.308-.1c.328-.213.658-.422.988-.631.515-.326,1.048-.664,1.562-1.011a41.456,41.456,0,0,0,4.2-3.4l.463-.41a21.91,21.91,0,0,0,1.779-1.775,33.929,33.929,0,0,0,5.26-7.613,39.18,39.18,0,0,0,3.106-8,34.632,34.632,0,0,0,1.051-8.88,31.774,31.774,0,0,0-.446-4.9" transform="translate(-0.001 0)" fill="#003886"/>
      </g>
    </g>
  </g>
</svg>
