<svg xmlns="http://www.w3.org/2000/svg" width="241.717" height="43.948" viewBox="0 0 241.717 43.948"><path d="M21.972,43.949A21.974,21.974,0,0,0,43.946,21.974V6.592A6.592,6.592,0,0,0,37.354,0H23.071V9.64a11.928,11.928,0,0,0,1.288,6.351,10.986,10.986,0,0,0,7.586,5.084l.421.068a.879.879,0,0,1,0,1.663l-.421.068a10.987,10.987,0,0,0-9.072,9.072l-.068.421a.879.879,0,0,1-1.663,0l-.068-.421a10.987,10.987,0,0,0-5.084-7.586,11.928,11.928,0,0,0-6.351-1.288H.024A21.977,21.977,0,0,0,21.972,43.949Z" transform="translate(0.002)" fill="#0e1534"/><path d="M0,20.876H9.64a11.928,11.928,0,0,0,6.351-1.288,11.007,11.007,0,0,0,3.6-3.6A11.928,11.928,0,0,0,20.876,9.64V0H6.592A6.592,6.592,0,0,0,0,6.592ZM51.041,2.2a2.2,2.2,0,1,1-2.2-2.2,2.2,2.2,0,0,1,2.2,2.2ZM232.61,13.3c6.143,0,9.107,4.29,9.107,9.26v9.334h-6.429V23.666c0-2.252-.822-4.111-3.179-4.111s-3.142,1.859-3.142,4.111v8.225h-6.429V23.666c0-2.252-.786-4.111-3.143-4.111s-3.179,1.859-3.179,4.111v8.225h-6.427V22.558c0-4.969,2.963-9.26,9.106-9.26,3.358,0,5.786,1.323,6.893,3.5,1.178-2.181,3.75-3.5,6.821-3.5ZM198.237,26.171c2.071,0,2.964-1.9,2.964-4.149v-8.01h6.427v8.8c0,5.256-3.071,9.619-9.392,9.619s-9.393-4.362-9.393-9.619v-8.8h6.429v8.01C195.273,24.275,196.165,26.171,198.237,26.171Zm-18.845,6.292c-4.036,0-6.643-1.394-8.179-4.111l4.643-2.611a3.288,3.288,0,0,0,3.214,1.716c1.322,0,1.928-.465,1.928-1.037,0-2.181-9.428.036-9.428-6.9,0-3.362,2.857-6.079,7.714-6.079,4.25,0,6.571,2.073,7.607,4.076l-4.643,2.646a2.956,2.956,0,0,0-2.821-1.716c-.928,0-1.428.393-1.428.93,0,2.217,9.428.179,9.428,6.9C187.427,30.032,183.749,32.464,179.392,32.464Zm-22.46,7.653H150.5v-17.2c0-5.472,4.107-9.44,9.821-9.44a9.562,9.562,0,0,1,9.821,9.44c0,5.721-3.786,9.512-9.464,9.512a7.926,7.926,0,0,1-3.75-1v8.69Zm3.393-13.731a3.433,3.433,0,1,0-3.393-3.432A3.335,3.335,0,0,0,160.325,26.386ZM144.064,12.119a3.862,3.862,0,1,1,3.858-3.862A3.889,3.889,0,0,1,144.064,12.119Zm-3.214,1.894h6.429V31.892h-6.429ZM128.516,32.429a9.5,9.5,0,1,1,9.821-9.512A9.6,9.6,0,0,1,128.516,32.429Zm0-6.043a3.451,3.451,0,1,0-3.393-3.433A3.335,3.335,0,0,0,128.516,26.386Zm-21.96,14.267c-4.428,0-7.643-1.967-9.285-5.472l5.321-2.86a3.974,3.974,0,0,0,3.856,2.468c2.323,0,3.858-1.467,4.037-4.041a6.252,6.252,0,0,1-4.25,1.323,8.893,8.893,0,0,1-8.965-9.19,9.534,9.534,0,0,1,9.822-9.4c5.714,0,9.821,3.97,9.821,9.44V30c0,6.436-4.465,10.655-10.358,10.655Zm.428-14.624a3.22,3.22,0,0,0,3.393-3.291,3.4,3.4,0,0,0-6.786,0,3.238,3.238,0,0,0,3.393,3.288Zm-20.618,6.4a9.5,9.5,0,1,1,9.821-9.512,9.6,9.6,0,0,1-9.821,9.512Zm0-6.043a3.451,3.451,0,1,0-3.393-3.433A3.335,3.335,0,0,0,86.367,26.386ZM64.838,7.757V25.813H75.482v6.079H63.945c-4.071,0-5.713-2.146-5.713-5.543V7.757Z" transform="translate(0)" fill="#0e1534"/></svg>